<?xml version="1.0" encoding="utf-8"?>
<!-- Generator: Adobe Illustrator 21.0.2, SVG Export Plug-In . SVG Version: 6.00 Build 0)  -->
<svg version="1.1" id="Warstwa_1" xmlns="http://www.w3.org/2000/svg" xmlns:xlink="http://www.w3.org/1999/xlink" x="0px" y="0px"
	 viewBox="0 0 253.5 381" style="enable-background:new 0 0 253.5 381;" xml:space="preserve">
<style type="text/css">
	.st1{fill:#ffdba8;}
</style>
<path class="st1" d="M161.3,207.3h-84c-0.1,0-0.2,0.1-0.2,0.2s0.1,0.2,0.2,0.2h84c0.1,0,0.2-0.1,0.2-0.2S161.5,207.3,161.3,207.3z M161.3,228.3
	h-84c-0.1,0-0.2,0.1-0.2,0.2s0.1,0.2,0.2,0.2h84c0.1,0,0.2-0.1,0.2-0.2S161.5,228.3,161.3,228.3z M161.3,247.3h-84
	c-0.1,0-0.2,0.1-0.2,0.2s0.1,0.2,0.2,0.2h84c0.1,0,0.2-0.1,0.2-0.2S161.5,247.3,161.3,247.3z M37.2,211.5h2.9v-0.9h-2.9V211.5z
	 M45,206l-2.6,2l0.5,0.6l1.3-0.9l0.5-0.6l-0.1,0.7v5.8h-1.7v0.9h4.3v-0.9h-1.6V206H45z M54.1,207.1c0.4,0.7,0.7,1.8,0.7,3.3
	c0,1.4-0.2,2.5-0.7,3.3c-0.5,0.7-1.2,1.1-2.1,1.1c-1,0-1.6-0.4-2.1-1.1c-0.4-0.8-0.7-1.8-0.7-3.2s0.2-2.5,0.7-3.3
	c0.5-0.7,1.2-1.1,2-1.1C53,206,53.7,206.4,54.1,207.1z M53.8,210.3c0-0.5,0-1-0.1-1.4s-0.2-0.8-0.3-1.1s-0.3-0.6-0.5-0.7
	c-0.2-0.2-0.5-0.3-0.8-0.3c-0.6,0-1,0.3-1.3,0.9c-0.3,0.6-0.4,1.5-0.4,2.7c0,0.5,0,1,0.1,1.4s0.2,0.8,0.3,1.1s0.3,0.5,0.5,0.7
	s0.5,0.3,0.8,0.3c0.6,0,1.1-0.3,1.3-0.8C53.7,212.4,53.8,211.6,53.8,210.3z M37.2,230.5h2.9v-0.9h-2.9V230.5z M45.2,229.4
	c-0.2,0.4-0.4,0.8-0.7,1.1c-0.3,0.4-0.5,0.7-0.8,1.1s-0.5,0.6-0.8,0.9c-0.2,0.3-0.5,0.5-0.6,0.7v0.3h4.8v-0.9h-2.6l-0.8,0.1l0,0
	l0.6-0.5c0.3-0.4,0.6-0.8,0.9-1.2c0.3-0.4,0.6-0.9,0.8-1.3c0.3-0.4,0.5-0.9,0.6-1.3c0.2-0.4,0.2-0.9,0.2-1.3c0-0.3,0-0.6-0.1-0.8
	s-0.2-0.5-0.4-0.7s-0.4-0.3-0.7-0.4c-0.3-0.1-0.6-0.1-0.9-0.1c-0.4,0-0.9,0.1-1.2,0.2c-0.4,0.1-0.7,0.3-1,0.6l0.4,0.7
	c0.2-0.2,0.5-0.3,0.7-0.4c0.3-0.1,0.6-0.2,0.9-0.2c0.5,0,0.8,0.1,1,0.4c0.2,0.3,0.3,0.6,0.3,1c0,0.3-0.1,0.7-0.2,1.1
	S45.4,229,45.2,229.4z M54.1,226.1c0.4,0.7,0.7,1.8,0.7,3.3c0,1.4-0.2,2.5-0.7,3.3c-0.5,0.7-1.2,1.1-2.1,1.1c-1,0-1.6-0.4-2.1-1.1
	c-0.4-0.8-0.7-1.8-0.7-3.2s0.2-2.5,0.7-3.3c0.5-0.7,1.2-1.1,2-1.1C53,225,53.7,225.4,54.1,226.1z M53.8,229.3c0-0.5,0-1-0.1-1.4
	s-0.2-0.8-0.3-1.1s-0.3-0.6-0.5-0.7c-0.2-0.2-0.5-0.3-0.8-0.3c-0.6,0-1,0.3-1.3,0.9c-0.3,0.6-0.4,1.5-0.4,2.7c0,0.5,0,1,0.1,1.4
	s0.2,0.8,0.3,1.1s0.3,0.5,0.5,0.7s0.5,0.3,0.8,0.3c0.6,0,1.1-0.3,1.3-0.8C53.7,231.4,53.8,230.6,53.8,229.3z M37.2,251.5h2.9v-0.9
	h-2.9V251.5z M45.7,253.4c-0.2,0.2-0.4,0.3-0.6,0.4s-0.5,0.1-0.8,0.1s-0.6,0-0.8-0.1s-0.5-0.1-0.7-0.2l-0.3,0.9
	c0.2,0.1,0.5,0.2,0.8,0.2c0.3,0.1,0.6,0.1,1,0.1s0.8-0.1,1.1-0.2c0.4-0.1,0.7-0.3,0.9-0.5s0.5-0.5,0.6-0.8c0.2-0.3,0.2-0.7,0.2-1.2
	c0-0.4-0.1-0.7-0.2-1c-0.1-0.3-0.3-0.5-0.5-0.7s-0.4-0.4-0.7-0.5s-0.6-0.2-0.9-0.2l-0.4,0.1l0,0l0.4-0.3l1.9-2.9v-0.3h-4.3v0.9h2.4
	l0.8-0.1l-0.6,0.5l-1.7,2.7v0.3h0.9c0.6,0,1,0.1,1.4,0.4s0.5,0.7,0.5,1.2c0,0.3,0,0.5-0.1,0.7C46,253,45.8,253.2,45.7,253.4z
	 M54.1,247.1c0.4,0.7,0.7,1.8,0.7,3.3c0,1.4-0.2,2.5-0.7,3.3c-0.5,0.7-1.2,1.1-2.1,1.1c-1,0-1.6-0.4-2.1-1.1
	c-0.4-0.8-0.7-1.8-0.7-3.2s0.2-2.5,0.7-3.3c0.5-0.7,1.2-1.1,2-1.1C53,246,53.7,246.4,54.1,247.1z M53.8,250.3c0-0.5,0-1-0.1-1.4
	s-0.2-0.8-0.3-1.1s-0.3-0.6-0.5-0.7c-0.2-0.2-0.5-0.3-0.8-0.3c-0.6,0-1,0.3-1.3,0.9c-0.3,0.6-0.4,1.5-0.4,2.7c0,0.5,0,1,0.1,1.4
	s0.2,0.8,0.3,1.1s0.3,0.5,0.5,0.7s0.5,0.3,0.8,0.3c0.6,0,1.1-0.3,1.3-0.8C53.7,252.4,53.8,251.6,53.8,250.3z M187.2,211.5h2.9v-0.9
	h-2.9V211.5z M195,206l-2.6,2l0.5,0.6l1.3-0.9l0.5-0.6l-0.1,0.7v5.8h-1.7v0.9h4.3v-0.9h-1.6V206H195z M204.1,207.1
	c0.4,0.7,0.7,1.8,0.7,3.3c0,1.4-0.2,2.5-0.7,3.3c-0.5,0.7-1.2,1.1-2.1,1.1c-1,0-1.6-0.4-2.1-1.1c-0.4-0.8-0.7-1.8-0.7-3.2
	s0.2-2.5,0.7-3.3c0.5-0.7,1.2-1.1,2-1.1C203,206,203.7,206.4,204.1,207.1z M203.8,210.3c0-0.5,0-1-0.1-1.4s-0.2-0.8-0.3-1.1
	s-0.3-0.6-0.5-0.7c-0.2-0.2-0.5-0.3-0.8-0.3c-0.6,0-1,0.3-1.3,0.9c-0.3,0.6-0.4,1.5-0.4,2.7c0,0.5,0,1,0.1,1.4s0.2,0.8,0.3,1.1
	s0.3,0.5,0.5,0.7s0.5,0.3,0.8,0.3c0.6,0,1.1-0.3,1.3-0.8C203.7,212.4,203.8,211.6,203.8,210.3z M187.2,230.5h2.9v-0.9h-2.9V230.5z
	 M195.2,229.4c-0.2,0.4-0.4,0.8-0.7,1.1c-0.3,0.4-0.5,0.7-0.8,1.1s-0.5,0.6-0.8,0.9c-0.2,0.3-0.5,0.5-0.6,0.7v0.3h4.8v-0.9h-2.6
	l-0.8,0.1l0,0l0.6-0.5c0.3-0.4,0.6-0.8,0.9-1.2s0.6-0.9,0.8-1.3c0.3-0.4,0.5-0.9,0.6-1.3c0.2-0.4,0.2-0.9,0.2-1.3
	c0-0.3,0-0.6-0.1-0.8s-0.2-0.5-0.4-0.7s-0.4-0.3-0.7-0.4c-0.3-0.1-0.6-0.1-0.9-0.1c-0.4,0-0.9,0.1-1.2,0.2c-0.4,0.1-0.7,0.3-1,0.6
	l0.4,0.7c0.2-0.2,0.5-0.3,0.7-0.4c0.3-0.1,0.6-0.2,0.9-0.2c0.5,0,0.8,0.1,1,0.4c0.2,0.3,0.3,0.6,0.3,1c0,0.3-0.1,0.7-0.2,1.1
	S195.4,229,195.2,229.4z M204.1,226.1c0.4,0.7,0.7,1.8,0.7,3.3c0,1.4-0.2,2.5-0.7,3.3c-0.5,0.7-1.2,1.1-2.1,1.1
	c-1,0-1.6-0.4-2.1-1.1c-0.4-0.8-0.7-1.8-0.7-3.2s0.2-2.5,0.7-3.3c0.5-0.7,1.2-1.1,2-1.1C203,225,203.7,225.4,204.1,226.1z
	 M203.8,229.3c0-0.5,0-1-0.1-1.4s-0.2-0.8-0.3-1.1s-0.3-0.6-0.5-0.7c-0.2-0.2-0.5-0.3-0.8-0.3c-0.6,0-1,0.3-1.3,0.9
	c-0.3,0.6-0.4,1.5-0.4,2.7c0,0.5,0,1,0.1,1.4s0.2,0.8,0.3,1.1s0.3,0.5,0.5,0.7s0.5,0.3,0.8,0.3c0.6,0,1.1-0.3,1.3-0.8
	C203.7,231.4,203.8,230.6,203.8,229.3z M187.2,251.5h2.9v-0.9h-2.9V251.5z M195.7,253.4c-0.2,0.2-0.4,0.3-0.6,0.4s-0.5,0.1-0.8,0.1
	s-0.6,0-0.8-0.1s-0.5-0.1-0.7-0.2l-0.3,0.9c0.2,0.1,0.5,0.2,0.8,0.2c0.3,0.1,0.6,0.1,1,0.1s0.8-0.1,1.1-0.2c0.4-0.1,0.7-0.3,0.9-0.5
	s0.5-0.5,0.6-0.8c0.2-0.3,0.2-0.7,0.2-1.2c0-0.4-0.1-0.7-0.2-1s-0.3-0.5-0.5-0.7s-0.4-0.4-0.7-0.5s-0.6-0.2-0.9-0.2l-0.4,0.1l0,0
	l0.4-0.3l1.9-2.9v-0.3h-4.3v0.9h2.4l0.8-0.1l-0.6,0.5l-1.7,2.7v0.3h0.9c0.6,0,1,0.1,1.4,0.4s0.5,0.7,0.5,1.2c0,0.3,0,0.5-0.1,0.7
	C196,253,195.8,253.2,195.7,253.4z M204.1,247.1c0.4,0.7,0.7,1.8,0.7,3.3c0,1.4-0.2,2.5-0.7,3.3c-0.5,0.7-1.2,1.1-2.1,1.1
	c-1,0-1.6-0.4-2.1-1.1c-0.4-0.8-0.7-1.8-0.7-3.2s0.2-2.5,0.7-3.3c0.5-0.7,1.2-1.1,2-1.1C203,246,203.7,246.4,204.1,247.1z
	 M203.8,250.3c0-0.5,0-1-0.1-1.4s-0.2-0.8-0.3-1.1s-0.3-0.6-0.5-0.7c-0.2-0.2-0.5-0.3-0.8-0.3c-0.6,0-1,0.3-1.3,0.9
	c-0.3,0.6-0.4,1.5-0.4,2.7c0,0.5,0,1,0.1,1.4s0.2,0.8,0.3,1.1s0.3,0.5,0.5,0.7s0.5,0.3,0.8,0.3c0.6,0,1.1-0.3,1.3-0.8
	C203.7,252.4,203.8,251.6,203.8,250.3z M161.3,266.3h-84c-0.1,0-0.2,0.1-0.2,0.2s0.1,0.2,0.2,0.2h84c0.1,0,0.2-0.1,0.2-0.2
	S161.5,266.3,161.3,266.3z M161.3,287.3h-84c-0.1,0-0.2,0.1-0.2,0.2s0.1,0.2,0.2,0.2h84c0.1,0,0.2-0.1,0.2-0.2
	S161.5,287.3,161.3,287.3z M161.3,306.3h-84c-0.1,0-0.2,0.1-0.2,0.2s0.1,0.2,0.2,0.2h84c0.1,0,0.2-0.1,0.2-0.2
	S161.5,306.3,161.3,306.3z M37.2,270.5h2.9v-0.9h-2.9V270.5z M46.4,270.1h1.4v0.8h-1.4v2.6h-0.9V271h-3.7v-0.4l4-5.6h0.6L46.4,270.1
	L46.4,270.1z M45.6,266.5L45.6,266.5l-0.5,0.8l-1.7,2.3l-0.6,0.6l0.8-0.1h1.8v-2.6L45.6,266.5z M54.1,266.1c0.4,0.7,0.7,1.8,0.7,3.3
	c0,1.4-0.2,2.5-0.7,3.3c-0.5,0.7-1.2,1.1-2.1,1.1c-1,0-1.6-0.4-2.1-1.1c-0.4-0.8-0.7-1.8-0.7-3.2c0-1.4,0.2-2.5,0.7-3.3
	c0.5-0.7,1.2-1.1,2-1.1C53,265,53.7,265.4,54.1,266.1z M53.8,269.3c0-0.5,0-1-0.1-1.4s-0.2-0.8-0.3-1.1c-0.1-0.3-0.3-0.6-0.5-0.7
	c-0.2-0.2-0.5-0.3-0.8-0.3c-0.6,0-1,0.3-1.3,0.9s-0.4,1.5-0.4,2.7c0,0.5,0,1,0.1,1.4s0.2,0.8,0.3,1.1s0.3,0.5,0.5,0.7
	s0.5,0.3,0.8,0.3c0.6,0,1.1-0.3,1.3-0.8C53.7,271.4,53.8,270.6,53.8,269.3z M37.2,289.5h2.9v-0.9h-2.9V289.5z M44.1,291.8
	c-0.3,0-0.6,0-0.8-0.1s-0.4-0.1-0.6-0.2l-0.3,0.8c0.2,0.1,0.4,0.1,0.7,0.2c0.2,0,0.6,0.1,0.9,0.1c0.4,0,0.8-0.1,1.1-0.2
	c0.4-0.1,0.7-0.3,0.9-0.5c0.3-0.2,0.5-0.5,0.6-0.9s0.2-0.7,0.2-1.2c0-0.8-0.2-1.4-0.7-1.9c-0.5-0.4-1.1-0.7-1.9-0.7h-0.5V285h2.8
	v-0.9h-3.7v4.2l1-0.1c0.6,0,1.1,0.1,1.5,0.4s0.5,0.7,0.5,1.3c0,0.6-0.2,1.1-0.5,1.4C45.1,291.7,44.6,291.8,44.1,291.8z M54.1,285.1
	c0.4,0.7,0.7,1.8,0.7,3.3c0,1.4-0.2,2.5-0.7,3.3c-0.5,0.7-1.2,1.1-2.1,1.1c-1,0-1.6-0.4-2.1-1.1c-0.4-0.8-0.7-1.8-0.7-3.2
	c0-1.4,0.2-2.5,0.7-3.3c0.5-0.7,1.2-1.1,2-1.1C53,284,53.7,284.4,54.1,285.1z M53.8,288.3c0-0.5,0-1-0.1-1.4s-0.2-0.8-0.3-1.1
	c-0.1-0.3-0.3-0.6-0.5-0.7c-0.2-0.2-0.5-0.3-0.8-0.3c-0.6,0-1,0.3-1.3,0.9s-0.4,1.5-0.4,2.7c0,0.5,0,1,0.1,1.4s0.2,0.8,0.3,1.1
	s0.3,0.5,0.5,0.7s0.5,0.3,0.8,0.3c0.6,0,1.1-0.3,1.3-0.8C53.7,290.4,53.8,289.6,53.8,288.3z M37.2,310.5h2.9v-0.9h-2.9V310.5z
	 M46.8,309.2c0.4,0.4,0.6,1,0.6,1.8c0,0.4-0.1,0.7-0.2,1c-0.1,0.3-0.3,0.6-0.5,0.9c-0.2,0.2-0.5,0.4-0.8,0.6
	c-0.3,0.1-0.7,0.2-1.1,0.2c-0.4,0-0.8-0.1-1.1-0.2s-0.6-0.3-0.8-0.6s-0.4-0.6-0.5-0.9c-0.1-0.4-0.2-0.8-0.2-1.3
	c0-0.8,0.1-1.5,0.3-2.2s0.5-1.2,0.8-1.7s0.8-0.9,1.3-1.2c0.5-0.3,1-0.5,1.6-0.6l0.2,0.8c-0.4,0.1-0.9,0.2-1.2,0.5s-0.7,0.5-1,0.8
	s-0.5,0.7-0.7,1.1s-0.3,0.8-0.4,1.3c0.1-0.2,0.3-0.4,0.6-0.6s0.7-0.3,1.1-0.3C45.8,308.6,46.3,308.8,46.8,309.2z M46.4,311.1
	c0-0.6-0.1-1-0.4-1.3c-0.3-0.3-0.7-0.4-1.2-0.4c-0.4,0-0.7,0.1-1,0.3c-0.3,0.2-0.5,0.4-0.6,0.6c0,0.1,0,0.2,0,0.3c0,0.1,0,0.2,0,0.2
	c0,0.2,0,0.5,0.1,0.7s0.2,0.5,0.3,0.6c0.1,0.2,0.3,0.3,0.5,0.5c0.2,0.1,0.5,0.2,0.8,0.2c0.2,0,0.4,0,0.6-0.1
	c0.2-0.1,0.3-0.2,0.5-0.4c0.1-0.2,0.2-0.3,0.3-0.6C46.4,311.6,46.4,311.4,46.4,311.1z M54.1,306.1c0.4,0.7,0.7,1.8,0.7,3.3
	c0,1.4-0.2,2.5-0.7,3.3c-0.5,0.7-1.2,1.1-2.1,1.1c-1,0-1.6-0.4-2.1-1.1c-0.4-0.8-0.7-1.8-0.7-3.2c0-1.4,0.2-2.5,0.7-3.3
	c0.5-0.7,1.2-1.1,2-1.1C53,305,53.7,305.4,54.1,306.1z M53.8,309.3c0-0.5,0-1-0.1-1.4s-0.2-0.8-0.3-1.1c-0.1-0.3-0.3-0.6-0.5-0.7
	c-0.2-0.2-0.5-0.3-0.8-0.3c-0.6,0-1,0.3-1.3,0.9s-0.4,1.5-0.4,2.7c0,0.5,0,1,0.1,1.4s0.2,0.8,0.3,1.1s0.3,0.5,0.5,0.7
	s0.5,0.3,0.8,0.3c0.6,0,1.1-0.3,1.3-0.8C53.7,311.4,53.8,310.6,53.8,309.3z M187.2,270.5h2.9v-0.9h-2.9V270.5z M196.4,270.1h1.4v0.8
	h-1.4v2.6h-0.9V271h-3.7v-0.4l4-5.6h0.6L196.4,270.1L196.4,270.1z M195.6,266.5L195.6,266.5l-0.5,0.8l-1.7,2.3l-0.6,0.6l0.8-0.1h1.8
	v-2.6L195.6,266.5z M204.1,266.1c0.4,0.7,0.7,1.8,0.7,3.3c0,1.4-0.2,2.5-0.7,3.3c-0.5,0.7-1.2,1.1-2.1,1.1c-1,0-1.6-0.4-2.1-1.1
	c-0.4-0.8-0.7-1.8-0.7-3.2c0-1.4,0.2-2.5,0.7-3.3c0.5-0.7,1.2-1.1,2-1.1C203,265,203.7,265.4,204.1,266.1z M203.8,269.3
	c0-0.5,0-1-0.1-1.4s-0.2-0.8-0.3-1.1c-0.1-0.3-0.3-0.6-0.5-0.7c-0.2-0.2-0.5-0.3-0.8-0.3c-0.6,0-1,0.3-1.3,0.9s-0.4,1.5-0.4,2.7
	c0,0.5,0,1,0.1,1.4s0.2,0.8,0.3,1.1s0.3,0.5,0.5,0.7s0.5,0.3,0.8,0.3c0.6,0,1.1-0.3,1.3-0.8C203.7,271.4,203.8,270.6,203.8,269.3z
	 M187.2,289.5h2.9v-0.9h-2.9V289.5z M194.1,291.8c-0.3,0-0.6,0-0.8-0.1s-0.4-0.1-0.6-0.2l-0.3,0.8c0.2,0.1,0.4,0.1,0.7,0.2
	c0.2,0,0.6,0.1,0.9,0.1c0.4,0,0.8-0.1,1.1-0.2c0.4-0.1,0.7-0.3,0.9-0.5c0.3-0.2,0.5-0.5,0.6-0.9s0.2-0.7,0.2-1.2
	c0-0.8-0.2-1.4-0.7-1.9c-0.5-0.4-1.1-0.7-1.9-0.7h-0.5V285h2.8v-0.9h-3.7v4.2l1-0.1c0.6,0,1.1,0.1,1.5,0.4s0.5,0.7,0.5,1.3
	c0,0.6-0.2,1.1-0.5,1.4C195.1,291.7,194.6,291.8,194.1,291.8z M204.1,285.1c0.4,0.7,0.7,1.8,0.7,3.3c0,1.4-0.2,2.5-0.7,3.3
	c-0.5,0.7-1.2,1.1-2.1,1.1c-1,0-1.6-0.4-2.1-1.1c-0.4-0.8-0.7-1.8-0.7-3.2c0-1.4,0.2-2.5,0.7-3.3c0.5-0.7,1.2-1.1,2-1.1
	C203,284,203.7,284.4,204.1,285.1z M203.8,288.3c0-0.5,0-1-0.1-1.4s-0.2-0.8-0.3-1.1c-0.1-0.3-0.3-0.6-0.5-0.7
	c-0.2-0.2-0.5-0.3-0.8-0.3c-0.6,0-1,0.3-1.3,0.9s-0.4,1.5-0.4,2.7c0,0.5,0,1,0.1,1.4s0.2,0.8,0.3,1.1s0.3,0.5,0.5,0.7
	s0.5,0.3,0.8,0.3c0.6,0,1.1-0.3,1.3-0.8C203.7,290.4,203.8,289.6,203.8,288.3z M187.2,310.5h2.9v-0.9h-2.9V310.5z M196.8,309.2
	c0.4,0.4,0.6,1,0.6,1.8c0,0.4-0.1,0.7-0.2,1s-0.3,0.6-0.5,0.9c-0.2,0.2-0.5,0.4-0.8,0.6c-0.3,0.1-0.7,0.2-1.1,0.2s-0.8-0.1-1.1-0.2
	s-0.6-0.3-0.8-0.6s-0.4-0.6-0.5-0.9c-0.1-0.4-0.2-0.8-0.2-1.3c0-0.8,0.1-1.5,0.3-2.2s0.5-1.2,0.8-1.7s0.8-0.9,1.3-1.2
	c0.5-0.3,1-0.5,1.6-0.6l0.2,0.8c-0.4,0.1-0.9,0.2-1.2,0.5s-0.7,0.5-1,0.8s-0.5,0.7-0.7,1.1s-0.3,0.8-0.4,1.3
	c0.1-0.2,0.3-0.4,0.6-0.6s0.7-0.3,1.1-0.3C195.8,308.6,196.3,308.8,196.8,309.2z M196.4,311.1c0-0.6-0.1-1-0.4-1.3s-0.7-0.4-1.2-0.4
	c-0.4,0-0.7,0.1-1,0.3c-0.3,0.2-0.5,0.4-0.6,0.6c0,0.1,0,0.2,0,0.3c0,0.1,0,0.2,0,0.2c0,0.2,0,0.5,0.1,0.7s0.2,0.5,0.3,0.6
	c0.1,0.2,0.3,0.3,0.5,0.5c0.2,0.1,0.5,0.2,0.8,0.2c0.2,0,0.4,0,0.6-0.1s0.3-0.2,0.5-0.4c0.1-0.2,0.2-0.3,0.3-0.6
	C196.4,311.6,196.4,311.4,196.4,311.1z M204.1,306.1c0.4,0.7,0.7,1.8,0.7,3.3c0,1.4-0.2,2.5-0.7,3.3c-0.5,0.7-1.2,1.1-2.1,1.1
	c-1,0-1.6-0.4-2.1-1.1c-0.4-0.8-0.7-1.8-0.7-3.2c0-1.4,0.2-2.5,0.7-3.3c0.5-0.7,1.2-1.1,2-1.1C203,305,203.7,305.4,204.1,306.1z
	 M203.8,309.3c0-0.5,0-1-0.1-1.4s-0.2-0.8-0.3-1.1c-0.1-0.3-0.3-0.6-0.5-0.7c-0.2-0.2-0.5-0.3-0.8-0.3c-0.6,0-1,0.3-1.3,0.9
	s-0.4,1.5-0.4,2.7c0,0.5,0,1,0.1,1.4s0.2,0.8,0.3,1.1s0.3,0.5,0.5,0.7s0.5,0.3,0.8,0.3c0.6,0,1.1-0.3,1.3-0.8
	C203.7,311.4,203.8,310.6,203.8,309.3z M161.3,325.3h-84c-0.1,0-0.2,0.1-0.2,0.2s0.1,0.2,0.2,0.2h84c0.1,0,0.2-0.1,0.2-0.2
	S161.5,325.3,161.3,325.3z M161.3,346.3h-84c-0.1,0-0.2,0.1-0.2,0.2s0.1,0.2,0.2,0.2h84c0.1,0,0.2-0.1,0.2-0.2
	S161.5,346.3,161.3,346.3z M161.3,365.3h-84c-0.1,0-0.2,0.1-0.2,0.2s0.1,0.2,0.2,0.2h84c0.1,0,0.2-0.1,0.2-0.2
	S161.5,365.3,161.3,365.3z M37.2,329.5h2.9v-0.9h-2.9V329.5z M47.3,324.1h-5v0.9h3.4l0.7-0.1l-0.5,0.6l-3,7h1l3.5-8.1L47.3,324.1
	L47.3,324.1z M54.1,325.1c0.4,0.7,0.7,1.8,0.7,3.3c0,1.4-0.2,2.5-0.7,3.3c-0.5,0.7-1.2,1.1-2.1,1.1c-1,0-1.6-0.4-2.1-1.1
	c-0.4-0.8-0.7-1.8-0.7-3.2c0-1.4,0.2-2.5,0.7-3.3c0.5-0.7,1.2-1.1,2-1.1C53,324,53.7,324.4,54.1,325.1z M53.8,328.3
	c0-0.5,0-1-0.1-1.4s-0.2-0.8-0.3-1.1c-0.1-0.3-0.3-0.6-0.5-0.7c-0.2-0.2-0.5-0.3-0.8-0.3c-0.6,0-1,0.3-1.3,0.9s-0.4,1.5-0.4,2.7
	c0,0.5,0,1,0.1,1.4s0.2,0.8,0.3,1.1s0.3,0.5,0.5,0.7s0.5,0.3,0.8,0.3c0.6,0,1.1-0.3,1.3-0.8C53.7,330.4,53.8,329.6,53.8,328.3z
	 M37.2,348.5h2.9v-0.9h-2.9V348.5z M44,347.2c-0.2-0.1-0.4-0.2-0.6-0.4c-0.2-0.1-0.3-0.3-0.5-0.5c-0.1-0.2-0.2-0.4-0.3-0.6
	s-0.1-0.4-0.1-0.7c0-0.3,0.1-0.6,0.2-0.9s0.3-0.5,0.5-0.7s0.4-0.3,0.7-0.4s0.6-0.2,1-0.2c0.3,0,0.6,0,0.9,0.1
	c0.3,0.1,0.5,0.2,0.7,0.4s0.3,0.4,0.4,0.6s0.2,0.5,0.2,0.8c0,0.5-0.1,0.9-0.3,1.2c-0.2,0.3-0.6,0.7-1,1c0.2,0.1,0.4,0.3,0.6,0.4
	c0.2,0.1,0.4,0.3,0.5,0.5s0.2,0.4,0.3,0.6s0.1,0.5,0.1,0.8s-0.1,0.7-0.2,0.9c-0.1,0.3-0.3,0.5-0.5,0.7s-0.5,0.4-0.8,0.5
	s-0.7,0.2-1.1,0.2c-0.4,0-0.7-0.1-1-0.2s-0.5-0.3-0.8-0.5s-0.4-0.4-0.5-0.7c-0.1-0.3-0.2-0.5-0.2-0.8c0-0.5,0.1-0.9,0.4-1.3
	C43,347.9,43.4,347.5,44,347.2z M44.4,346.5c0.2,0.1,0.4,0.2,0.6,0.3c0.4-0.3,0.6-0.6,0.8-0.8c0.2-0.3,0.3-0.6,0.3-0.9
	c0-0.4-0.1-0.7-0.4-0.9c-0.3-0.2-0.6-0.3-0.9-0.3c-0.2,0-0.4,0-0.6,0.1c-0.2,0.1-0.3,0.2-0.4,0.3c-0.1,0.1-0.2,0.2-0.3,0.4
	c-0.1,0.1-0.1,0.3-0.1,0.5s0,0.4,0.1,0.6s0.2,0.3,0.4,0.5C44.1,346.3,44.3,346.4,44.4,346.5z M43.3,349.4c0,0.2,0,0.4,0.1,0.6
	s0.2,0.3,0.3,0.5c0.1,0.1,0.3,0.2,0.5,0.3c0.2,0.1,0.4,0.1,0.7,0.1c0.2,0,0.4,0,0.6-0.1s0.3-0.1,0.5-0.3c0.1-0.1,0.3-0.3,0.3-0.4
	c0.1-0.2,0.1-0.4,0.1-0.6s0-0.5-0.1-0.6c-0.1-0.2-0.2-0.3-0.4-0.5c-0.2-0.1-0.3-0.3-0.5-0.4s-0.4-0.2-0.6-0.3
	c-0.5,0.3-0.8,0.6-1,0.9S43.3,349.1,43.3,349.4z M54.1,344.1c0.4,0.7,0.7,1.8,0.7,3.3c0,1.4-0.2,2.5-0.7,3.3
	c-0.5,0.7-1.2,1.1-2.1,1.1c-1,0-1.6-0.4-2.1-1.1c-0.4-0.8-0.7-1.8-0.7-3.2c0-1.4,0.2-2.5,0.7-3.3c0.5-0.7,1.2-1.1,2-1.1
	C53,343,53.7,343.4,54.1,344.1z M53.8,347.3c0-0.5,0-1-0.1-1.4s-0.2-0.8-0.3-1.1c-0.1-0.3-0.3-0.6-0.5-0.7c-0.2-0.2-0.5-0.3-0.8-0.3
	c-0.6,0-1,0.3-1.3,0.9s-0.4,1.5-0.4,2.7c0,0.5,0,1,0.1,1.4s0.2,0.8,0.3,1.1s0.3,0.5,0.5,0.7s0.5,0.3,0.8,0.3c0.6,0,1.1-0.3,1.3-0.8
	C53.7,349.4,53.8,348.6,53.8,347.3z M37.2,369.5h2.9v-0.9h-2.9V369.5z M46.6,364.8c0.5,0.5,0.7,1.3,0.7,2.2c0,0.9-0.1,1.7-0.3,2.4
	c-0.2,0.7-0.5,1.2-0.8,1.7s-0.8,0.8-1.3,1.1c-0.5,0.3-1,0.4-1.6,0.5l-0.2-0.8c0.5-0.1,0.9-0.2,1.3-0.4c0.4-0.2,0.7-0.5,1-0.8
	s0.5-0.6,0.7-1s0.3-0.8,0.3-1.3c-0.2,0.3-0.5,0.4-0.7,0.5c-0.3,0.1-0.6,0.1-1,0.1c-0.3,0-0.6-0.1-0.9-0.2c-0.3-0.1-0.6-0.3-0.8-0.5
	s-0.4-0.5-0.5-0.8s-0.2-0.7-0.2-1c0-0.4,0.1-0.7,0.2-1.1c0.1-0.3,0.3-0.6,0.5-0.9c0.2-0.2,0.5-0.4,0.8-0.6c0.3-0.1,0.7-0.2,1.1-0.2
	C45.6,364,46.2,364.3,46.6,364.8z M46.4,367.1c0-0.3,0-0.6-0.1-0.8c-0.1-0.3-0.2-0.5-0.3-0.7s-0.3-0.4-0.5-0.5s-0.5-0.2-0.8-0.2
	c-0.5,0-0.9,0.2-1.1,0.5c-0.3,0.3-0.4,0.7-0.4,1.3c0,0.6,0.1,1,0.4,1.3c0.3,0.3,0.7,0.4,1.2,0.4c0.4,0,0.7-0.1,1-0.2
	s0.5-0.3,0.6-0.5c0-0.1,0-0.2,0-0.3C46.4,367.2,46.4,367.2,46.4,367.1z M54.1,365.1c0.4,0.7,0.7,1.8,0.7,3.3c0,1.4-0.2,2.5-0.7,3.3
	c-0.5,0.7-1.2,1.1-2.1,1.1c-1,0-1.6-0.4-2.1-1.1c-0.4-0.8-0.7-1.8-0.7-3.2c0-1.4,0.2-2.5,0.7-3.3c0.5-0.7,1.2-1.1,2-1.1
	C53,364,53.7,364.4,54.1,365.1z M53.8,368.3c0-0.5,0-1-0.1-1.4s-0.2-0.8-0.3-1.1c-0.1-0.3-0.3-0.6-0.5-0.7c-0.2-0.2-0.5-0.3-0.8-0.3
	c-0.6,0-1,0.3-1.3,0.9s-0.4,1.5-0.4,2.7c0,0.5,0,1,0.1,1.4s0.2,0.8,0.3,1.1s0.3,0.5,0.5,0.7s0.5,0.3,0.8,0.3c0.6,0,1.1-0.3,1.3-0.8
	C53.7,370.4,53.8,369.6,53.8,368.3z M187.2,329.5h2.9v-0.9h-2.9V329.5z M197.3,324.1h-5v0.9h3.4l0.7-0.1l-0.5,0.6l-3,7h1l3.5-8.1
	L197.3,324.1L197.3,324.1z M204.1,325.1c0.4,0.7,0.7,1.8,0.7,3.3c0,1.4-0.2,2.5-0.7,3.3c-0.5,0.7-1.2,1.1-2.1,1.1
	c-1,0-1.6-0.4-2.1-1.1c-0.4-0.8-0.7-1.8-0.7-3.2c0-1.4,0.2-2.5,0.7-3.3c0.5-0.7,1.2-1.1,2-1.1C203,324,203.7,324.4,204.1,325.1z
	 M203.8,328.3c0-0.5,0-1-0.1-1.4s-0.2-0.8-0.3-1.1c-0.1-0.3-0.3-0.6-0.5-0.7c-0.2-0.2-0.5-0.3-0.8-0.3c-0.6,0-1,0.3-1.3,0.9
	s-0.4,1.5-0.4,2.7c0,0.5,0,1,0.1,1.4s0.2,0.8,0.3,1.1s0.3,0.5,0.5,0.7s0.5,0.3,0.8,0.3c0.6,0,1.1-0.3,1.3-0.8
	C203.7,330.4,203.8,329.6,203.8,328.3z M187.2,348.5h2.9v-0.9h-2.9V348.5z M194,347.2c-0.2-0.1-0.4-0.2-0.6-0.4
	c-0.2-0.1-0.3-0.3-0.5-0.5c-0.1-0.2-0.2-0.4-0.3-0.6s-0.1-0.4-0.1-0.7c0-0.3,0.1-0.6,0.2-0.9s0.3-0.5,0.5-0.7s0.4-0.3,0.7-0.4
	s0.6-0.2,1-0.2c0.3,0,0.6,0,0.9,0.1s0.5,0.2,0.7,0.4s0.3,0.4,0.4,0.6s0.2,0.5,0.2,0.8c0,0.5-0.1,0.9-0.3,1.2c-0.2,0.3-0.6,0.7-1,1
	c0.2,0.1,0.4,0.3,0.6,0.4s0.4,0.3,0.5,0.5s0.2,0.4,0.3,0.6s0.1,0.5,0.1,0.8s-0.1,0.7-0.2,0.9c-0.1,0.3-0.3,0.5-0.5,0.7
	s-0.5,0.4-0.8,0.5s-0.7,0.2-1.1,0.2s-0.7-0.1-1-0.2s-0.5-0.3-0.8-0.5s-0.4-0.4-0.5-0.7c-0.1-0.3-0.2-0.5-0.2-0.8
	c0-0.5,0.1-0.9,0.4-1.3C193,347.9,193.4,347.5,194,347.2z M194.4,346.5c0.2,0.1,0.4,0.2,0.6,0.3c0.4-0.3,0.6-0.6,0.8-0.8
	c0.2-0.3,0.3-0.6,0.3-0.9c0-0.4-0.1-0.7-0.4-0.9c-0.3-0.2-0.6-0.3-0.9-0.3c-0.2,0-0.4,0-0.6,0.1s-0.3,0.2-0.4,0.3
	c-0.1,0.1-0.2,0.2-0.3,0.4c-0.1,0.1-0.1,0.3-0.1,0.5s0,0.4,0.1,0.6s0.2,0.3,0.4,0.5C194.1,346.3,194.3,346.4,194.4,346.5z
	 M193.3,349.4c0,0.2,0,0.4,0.1,0.6s0.2,0.3,0.3,0.5c0.1,0.1,0.3,0.2,0.5,0.3c0.2,0.1,0.4,0.1,0.7,0.1c0.2,0,0.4,0,0.6-0.1
	s0.3-0.1,0.5-0.3c0.1-0.1,0.3-0.3,0.3-0.4c0.1-0.2,0.1-0.4,0.1-0.6s0-0.5-0.1-0.6c-0.1-0.2-0.2-0.3-0.4-0.5
	c-0.2-0.1-0.3-0.3-0.5-0.4s-0.4-0.2-0.6-0.3c-0.5,0.3-0.8,0.6-1,0.9S193.3,349.1,193.3,349.4z M204.1,344.1c0.4,0.7,0.7,1.8,0.7,3.3
	c0,1.4-0.2,2.5-0.7,3.3c-0.5,0.7-1.2,1.1-2.1,1.1c-1,0-1.6-0.4-2.1-1.1c-0.4-0.8-0.7-1.8-0.7-3.2c0-1.4,0.2-2.5,0.7-3.3
	c0.5-0.7,1.2-1.1,2-1.1C203,343,203.7,343.4,204.1,344.1z M203.8,347.3c0-0.5,0-1-0.1-1.4s-0.2-0.8-0.3-1.1
	c-0.1-0.3-0.3-0.6-0.5-0.7c-0.2-0.2-0.5-0.3-0.8-0.3c-0.6,0-1,0.3-1.3,0.9s-0.4,1.5-0.4,2.7c0,0.5,0,1,0.1,1.4s0.2,0.8,0.3,1.1
	s0.3,0.5,0.5,0.7s0.5,0.3,0.8,0.3c0.6,0,1.1-0.3,1.3-0.8C203.7,349.4,203.8,348.6,203.8,347.3z M187.2,369.5h2.9v-0.9h-2.9V369.5z
	 M196.6,364.8c0.5,0.5,0.7,1.3,0.7,2.2c0,0.9-0.1,1.7-0.3,2.4c-0.2,0.7-0.5,1.2-0.8,1.7s-0.8,0.8-1.3,1.1c-0.5,0.3-1,0.4-1.6,0.5
	l-0.2-0.8c0.5-0.1,0.9-0.2,1.3-0.4c0.4-0.2,0.7-0.5,1-0.8s0.5-0.6,0.7-1s0.3-0.8,0.3-1.3c-0.2,0.3-0.5,0.4-0.7,0.5
	c-0.3,0.1-0.6,0.1-1,0.1c-0.3,0-0.6-0.1-0.9-0.2s-0.6-0.3-0.8-0.5s-0.4-0.5-0.5-0.8s-0.2-0.7-0.2-1c0-0.4,0.1-0.7,0.2-1.1
	c0.1-0.3,0.3-0.6,0.5-0.9c0.2-0.2,0.5-0.4,0.8-0.6c0.3-0.1,0.7-0.2,1.1-0.2C195.6,364,196.2,364.3,196.6,364.8z M196.4,367.1
	c0-0.3,0-0.6-0.1-0.8c-0.1-0.3-0.2-0.5-0.3-0.7s-0.3-0.4-0.5-0.5s-0.5-0.2-0.8-0.2c-0.5,0-0.9,0.2-1.1,0.5c-0.3,0.3-0.4,0.7-0.4,1.3
	c0,0.6,0.1,1,0.4,1.3s0.7,0.4,1.2,0.4c0.4,0,0.7-0.1,1-0.2s0.5-0.3,0.6-0.5c0-0.1,0-0.2,0-0.3C196.4,367.2,196.4,367.2,196.4,367.1z
	 M204.1,365.1c0.4,0.7,0.7,1.8,0.7,3.3c0,1.4-0.2,2.5-0.7,3.3c-0.5,0.7-1.2,1.1-2.1,1.1c-1,0-1.6-0.4-2.1-1.1
	c-0.4-0.8-0.7-1.8-0.7-3.2c0-1.4,0.2-2.5,0.7-3.3c0.5-0.7,1.2-1.1,2-1.1C203,364,203.7,364.4,204.1,365.1z M203.8,368.3
	c0-0.5,0-1-0.1-1.4s-0.2-0.8-0.3-1.1c-0.1-0.3-0.3-0.6-0.5-0.7c-0.2-0.2-0.5-0.3-0.8-0.3c-0.6,0-1,0.3-1.3,0.9s-0.4,1.5-0.4,2.7
	c0,0.5,0,1,0.1,1.4s0.2,0.8,0.3,1.1s0.3,0.5,0.5,0.7s0.5,0.3,0.8,0.3c0.6,0,1.1-0.3,1.3-0.8C203.7,370.4,203.8,369.6,203.8,368.3z
	 M77.3,15.8h84c0.1,0,0.2-0.1,0.2-0.2c0-0.1-0.1-0.2-0.2-0.2h-84c-0.1,0-0.2,0.1-0.2,0.2C77.1,15.7,77.1,15.8,77.3,15.8z M77.3,36.8
	h84c0.1,0,0.2-0.1,0.2-0.2s-0.1-0.2-0.2-0.2h-84c-0.1,0-0.2,0.1-0.2,0.2S77.1,36.8,77.3,36.8z M77.3,55.8h84c0.1,0,0.2-0.1,0.2-0.2
	s-0.1-0.2-0.2-0.2h-84c-0.1,0-0.2,0.1-0.2,0.2S77.1,55.8,77.3,55.8z M42.3,17.7c-0.1-0.3-0.2-0.7-0.2-1c0-0.4,0.1-0.7,0.2-1.1
	c0.1-0.3,0.3-0.6,0.5-0.9c0.2-0.2,0.5-0.4,0.8-0.6c0.3-0.1,0.7-0.2,1.1-0.2c0.8,0,1.5,0.3,1.9,0.8c0.5,0.5,0.7,1.3,0.7,2.2
	s-0.1,1.7-0.3,2.4c-0.2,0.7-0.5,1.2-0.8,1.7s-0.8,0.8-1.3,1.1s-1,0.4-1.6,0.5l-0.2-0.8c0.5-0.1,0.9-0.2,1.3-0.4
	c0.4-0.2,0.7-0.5,1-0.8s0.5-0.6,0.7-1s0.3-0.8,0.3-1.3c-0.2,0.3-0.5,0.4-0.7,0.5c-0.3,0.1-0.6,0.1-1,0.1c-0.3,0-0.6-0.1-0.9-0.2
	c-0.3-0.1-0.6-0.3-0.8-0.5C42.6,18.3,42.5,18,42.3,17.7z M43.1,16.6c0,0.6,0.1,1,0.4,1.3c0.3,0.3,0.7,0.4,1.2,0.4
	c0.4,0,0.7-0.1,1-0.2s0.5-0.3,0.6-0.5c0-0.1,0-0.2,0-0.3c0-0.1,0-0.2,0-0.3c0-0.3,0-0.6-0.1-0.8c-0.1-0.3-0.2-0.5-0.3-0.7
	s-0.3-0.4-0.5-0.5s-0.5-0.2-0.8-0.2c-0.5,0-0.9,0.2-1.1,0.5C43.3,15.6,43.1,16,43.1,16.6z M49.9,21.5c-0.4-0.8-0.7-1.8-0.7-3.2
	c0-1.4,0.2-2.5,0.7-3.3c0.5-0.7,1.2-1.1,2-1.1c1,0,1.7,0.4,2.1,1.1c0.4,0.7,0.7,1.8,0.7,3.3c0,1.4-0.2,2.5-0.7,3.3
	c-0.5,0.7-1.2,1.1-2.1,1.1C51.1,22.7,50.4,22.3,49.9,21.5z M50.3,18.3c0,0.5,0,1,0.1,1.4s0.2,0.8,0.3,1.1c0.1,0.3,0.3,0.5,0.5,0.7
	s0.5,0.3,0.8,0.3c0.6,0,1.1-0.3,1.3-0.8c0.3-0.6,0.4-1.4,0.4-2.7c0-0.5,0-1-0.1-1.4s-0.2-0.8-0.3-1.1s-0.3-0.6-0.5-0.7
	c-0.2-0.2-0.5-0.3-0.8-0.3c-0.6,0-1,0.3-1.3,0.9C50.4,16.3,50.3,17.1,50.3,18.3z M44,37.2c-0.2-0.1-0.4-0.2-0.6-0.4
	c-0.2-0.1-0.3-0.3-0.5-0.5c-0.1-0.2-0.2-0.4-0.3-0.6s-0.1-0.4-0.1-0.7s0.1-0.6,0.2-0.9c0.1-0.3,0.3-0.5,0.5-0.7s0.4-0.3,0.7-0.4
	s0.6-0.2,1-0.2c0.3,0,0.6,0,0.9,0.1c0.3,0.1,0.5,0.2,0.7,0.4s0.3,0.4,0.4,0.6c0.1,0.2,0.2,0.5,0.2,0.8c0,0.5-0.1,0.9-0.3,1.2
	s-0.6,0.7-1,1c0.2,0.1,0.4,0.3,0.6,0.4c0.2,0.1,0.4,0.3,0.5,0.5s0.2,0.4,0.3,0.6c0.1,0.2,0.1,0.5,0.1,0.8s-0.1,0.7-0.2,0.9
	c-0.1,0.3-0.3,0.5-0.5,0.7s-0.5,0.4-0.8,0.5s-0.7,0.2-1.1,0.2c-0.4,0-0.7-0.1-1-0.2s-0.5-0.3-0.8-0.5s-0.4-0.4-0.5-0.7
	s-0.2-0.5-0.2-0.8c0-0.5,0.1-0.9,0.4-1.3C43,37.9,43.4,37.5,44,37.2z M44.4,36.5c0.2,0.1,0.4,0.2,0.6,0.3c0.4-0.3,0.6-0.6,0.8-0.8
	c0.2-0.3,0.3-0.6,0.3-0.9c0-0.4-0.1-0.7-0.4-0.9c-0.3-0.2-0.6-0.3-0.9-0.3c-0.2,0-0.4,0-0.6,0.1c-0.2,0.1-0.3,0.2-0.4,0.3
	c-0.1,0.1-0.2,0.2-0.3,0.4c-0.1,0.1-0.1,0.3-0.1,0.5s0,0.4,0.1,0.6c0.1,0.2,0.2,0.3,0.4,0.5C44.1,36.3,44.3,36.4,44.4,36.5z
	 M43.3,39.4c0,0.2,0,0.4,0.1,0.6s0.2,0.3,0.3,0.5c0.1,0.1,0.3,0.2,0.5,0.3s0.4,0.1,0.7,0.1c0.2,0,0.4,0,0.6-0.1s0.3-0.1,0.5-0.3
	c0.1-0.1,0.3-0.3,0.3-0.4c0.1-0.2,0.1-0.4,0.1-0.6s0-0.5-0.1-0.6c-0.1-0.2-0.2-0.3-0.4-0.5c-0.2-0.1-0.3-0.3-0.5-0.4
	s-0.4-0.2-0.6-0.3c-0.5,0.3-0.8,0.6-1,0.9C43.6,38.9,43.3,39.1,43.3,39.4z M49.9,40.5c-0.4-0.8-0.7-1.8-0.7-3.2s0.2-2.5,0.7-3.3
	c0.5-0.7,1.2-1.1,2-1.1c1,0,1.7,0.4,2.1,1.1c0.4,0.7,0.7,1.8,0.7,3.3c0,1.4-0.2,2.5-0.7,3.3c-0.5,0.7-1.2,1.1-2.1,1.1
	C51.1,41.7,50.4,41.3,49.9,40.5z M50.3,37.3c0,0.5,0,1,0.1,1.4s0.2,0.8,0.3,1.1s0.3,0.5,0.5,0.7s0.5,0.3,0.8,0.3
	c0.6,0,1.1-0.3,1.3-0.8c0.3-0.6,0.4-1.4,0.4-2.7c0-0.5,0-1-0.1-1.4s-0.2-0.8-0.3-1.1s-0.3-0.6-0.5-0.7c-0.2-0.2-0.5-0.3-0.8-0.3
	c-0.6,0-1,0.3-1.3,0.9C50.4,35.3,50.3,36.1,50.3,37.3z M42.2,55h3.4l0.7-0.1l-0.5,0.6l-3,7h1l3.5-8.1v-0.3h-5L42.2,55L42.2,55z
	 M49.9,61.5c-0.4-0.8-0.7-1.8-0.7-3.2s0.2-2.5,0.7-3.3c0.5-0.7,1.2-1.1,2-1.1c1,0,1.7,0.4,2.1,1.1c0.4,0.7,0.7,1.8,0.7,3.3
	c0,1.4-0.2,2.5-0.7,3.3c-0.5,0.7-1.2,1.1-2.1,1.1C51.1,62.7,50.4,62.3,49.9,61.5z M50.3,58.3c0,0.5,0,1,0.1,1.4s0.2,0.8,0.3,1.1
	s0.3,0.5,0.5,0.7s0.5,0.3,0.8,0.3c0.6,0,1.1-0.3,1.3-0.8c0.3-0.6,0.4-1.4,0.4-2.7c0-0.5,0-1-0.1-1.4s-0.2-0.8-0.3-1.1
	s-0.3-0.6-0.5-0.7c-0.2-0.2-0.5-0.3-0.8-0.3c-0.6,0-1,0.3-1.3,0.9C50.4,56.3,50.3,57.1,50.3,58.3z M192.3,17.7
	c-0.1-0.3-0.2-0.7-0.2-1c0-0.4,0.1-0.7,0.2-1.1c0.1-0.3,0.3-0.6,0.5-0.9c0.2-0.2,0.5-0.4,0.8-0.6c0.3-0.1,0.7-0.2,1.1-0.2
	c0.8,0,1.5,0.3,1.9,0.8c0.5,0.5,0.7,1.3,0.7,2.2s-0.1,1.7-0.3,2.4c-0.2,0.7-0.5,1.2-0.8,1.7s-0.8,0.8-1.3,1.1s-1,0.4-1.6,0.5
	l-0.2-0.8c0.5-0.1,0.9-0.2,1.3-0.4c0.4-0.2,0.7-0.5,1-0.8s0.5-0.6,0.7-1s0.3-0.8,0.3-1.3c-0.2,0.3-0.5,0.4-0.7,0.5
	c-0.3,0.1-0.6,0.1-1,0.1c-0.3,0-0.6-0.1-0.9-0.2c-0.3-0.1-0.6-0.3-0.8-0.5C192.6,18.3,192.5,18,192.3,17.7z M193.1,16.6
	c0,0.6,0.1,1,0.4,1.3c0.3,0.3,0.7,0.4,1.2,0.4c0.4,0,0.7-0.1,1-0.2s0.5-0.3,0.6-0.5c0-0.1,0-0.2,0-0.3c0-0.1,0-0.2,0-0.3
	c0-0.3,0-0.6-0.1-0.8c-0.1-0.3-0.2-0.5-0.3-0.7s-0.3-0.4-0.5-0.5s-0.5-0.2-0.8-0.2c-0.5,0-0.9,0.2-1.1,0.5
	C193.3,15.6,193.1,16,193.1,16.6z M199.9,21.5c-0.4-0.8-0.7-1.8-0.7-3.2c0-1.4,0.2-2.5,0.7-3.3c0.5-0.7,1.2-1.1,2-1.1
	c1,0,1.7,0.4,2.1,1.1c0.4,0.7,0.7,1.8,0.7,3.3c0,1.4-0.2,2.5-0.7,3.3c-0.5,0.7-1.2,1.1-2.1,1.1C201.1,22.7,200.4,22.3,199.9,21.5z
	 M200.3,18.3c0,0.5,0,1,0.1,1.4s0.2,0.8,0.3,1.1c0.1,0.3,0.3,0.5,0.5,0.7s0.5,0.3,0.8,0.3c0.6,0,1.1-0.3,1.3-0.8
	c0.3-0.6,0.4-1.4,0.4-2.7c0-0.5,0-1-0.1-1.4s-0.2-0.8-0.3-1.1c-0.1-0.3-0.3-0.6-0.5-0.7c-0.2-0.2-0.5-0.3-0.8-0.3
	c-0.6,0-1,0.3-1.3,0.9C200.4,16.3,200.3,17.1,200.3,18.3z M194,37.2c-0.2-0.1-0.4-0.2-0.6-0.4c-0.2-0.1-0.3-0.3-0.5-0.5
	c-0.1-0.2-0.2-0.4-0.3-0.6c-0.1-0.2-0.1-0.4-0.1-0.7s0.1-0.6,0.2-0.9c0.1-0.3,0.3-0.5,0.5-0.7s0.4-0.3,0.7-0.4
	c0.3-0.1,0.6-0.2,1-0.2c0.3,0,0.6,0,0.9,0.1c0.3,0.1,0.5,0.2,0.7,0.4s0.3,0.4,0.4,0.6c0.1,0.2,0.2,0.5,0.2,0.8
	c0,0.5-0.1,0.9-0.3,1.2s-0.6,0.7-1,1c0.2,0.1,0.4,0.3,0.6,0.4s0.4,0.3,0.5,0.5s0.2,0.4,0.3,0.6c0.1,0.2,0.1,0.5,0.1,0.8
	s-0.1,0.7-0.2,0.9c-0.1,0.3-0.3,0.5-0.5,0.7s-0.5,0.4-0.8,0.5s-0.7,0.2-1.1,0.2s-0.7-0.1-1-0.2s-0.5-0.3-0.8-0.5s-0.4-0.4-0.5-0.7
	s-0.2-0.5-0.2-0.8c0-0.5,0.1-0.9,0.4-1.3C193,37.9,193.4,37.5,194,37.2z M194.4,36.5c0.2,0.1,0.4,0.2,0.6,0.3
	c0.4-0.3,0.6-0.6,0.8-0.8c0.2-0.3,0.3-0.6,0.3-0.9c0-0.4-0.1-0.7-0.4-0.9s-0.6-0.3-0.9-0.3c-0.2,0-0.4,0-0.6,0.1
	c-0.2,0.1-0.3,0.2-0.4,0.3s-0.2,0.2-0.3,0.4c-0.1,0.1-0.1,0.3-0.1,0.5s0,0.4,0.1,0.6c0.1,0.2,0.2,0.3,0.4,0.5
	C194.1,36.3,194.3,36.4,194.4,36.5z M193.3,39.4c0,0.2,0,0.4,0.1,0.6s0.2,0.3,0.3,0.5c0.1,0.1,0.3,0.2,0.5,0.3s0.4,0.1,0.7,0.1
	c0.2,0,0.4,0,0.6-0.1s0.3-0.1,0.5-0.3c0.1-0.1,0.3-0.3,0.3-0.4c0.1-0.2,0.1-0.4,0.1-0.6s0-0.5-0.1-0.6c-0.1-0.2-0.2-0.3-0.4-0.5
	c-0.2-0.1-0.3-0.3-0.5-0.4s-0.4-0.2-0.6-0.3c-0.5,0.3-0.8,0.6-1,0.9C193.6,38.9,193.3,39.1,193.3,39.4z M199.9,40.5
	c-0.4-0.8-0.7-1.8-0.7-3.2s0.2-2.5,0.7-3.3c0.5-0.7,1.2-1.1,2-1.1c1,0,1.7,0.4,2.1,1.1s0.7,1.8,0.7,3.3c0,1.4-0.2,2.5-0.7,3.3
	c-0.5,0.7-1.2,1.1-2.1,1.1C201.1,41.7,200.4,41.3,199.9,40.5z M200.3,37.3c0,0.5,0,1,0.1,1.4s0.2,0.8,0.3,1.1s0.3,0.5,0.5,0.7
	s0.5,0.3,0.8,0.3c0.6,0,1.1-0.3,1.3-0.8c0.3-0.6,0.4-1.4,0.4-2.7c0-0.5,0-1-0.1-1.4s-0.2-0.8-0.3-1.1s-0.3-0.6-0.5-0.7
	c-0.2-0.2-0.5-0.3-0.8-0.3c-0.6,0-1,0.3-1.3,0.9C200.4,35.3,200.3,36.1,200.3,37.3z M192.2,55h3.4l0.7-0.1l-0.5,0.6l-3,7h1l3.5-8.1
	v-0.3h-5L192.2,55L192.2,55z M199.9,61.5c-0.4-0.8-0.7-1.8-0.7-3.2s0.2-2.5,0.7-3.3c0.5-0.7,1.2-1.1,2-1.1c1,0,1.7,0.4,2.1,1.1
	c0.4,0.7,0.7,1.8,0.7,3.3c0,1.4-0.2,2.5-0.7,3.3c-0.5,0.7-1.2,1.1-2.1,1.1C201.1,62.7,200.4,62.3,199.9,61.5z M200.3,58.3
	c0,0.5,0,1,0.1,1.4s0.2,0.8,0.3,1.1s0.3,0.5,0.5,0.7s0.5,0.3,0.8,0.3c0.6,0,1.1-0.3,1.3-0.8c0.3-0.6,0.4-1.4,0.4-2.7
	c0-0.5,0-1-0.1-1.4s-0.2-0.8-0.3-1.1s-0.3-0.6-0.5-0.7c-0.2-0.2-0.5-0.3-0.8-0.3c-0.6,0-1,0.3-1.3,0.9
	C200.4,56.3,200.3,57.1,200.3,58.3z M77.3,74.8h84c0.1,0,0.2-0.1,0.2-0.2s-0.1-0.2-0.2-0.2h-84c-0.1,0-0.2,0.1-0.2,0.2
	C77.1,74.7,77.1,74.8,77.3,74.8z M77.3,95.8h84c0.1,0,0.2-0.1,0.2-0.2s-0.1-0.2-0.2-0.2h-84c-0.1,0-0.2,0.1-0.2,0.2
	S77.1,95.8,77.3,95.8z M77.3,114.8h84c0.1,0,0.2-0.1,0.2-0.2s-0.1-0.2-0.2-0.2h-84c-0.1,0-0.2,0.1-0.2,0.2S77.1,114.8,77.3,114.8z
	 M47.2,80c-0.1,0.3-0.3,0.6-0.5,0.9c-0.2,0.2-0.5,0.4-0.8,0.6c-0.3,0.1-0.7,0.2-1.1,0.2c-0.4,0-0.8-0.1-1.1-0.2s-0.6-0.3-0.8-0.6
	s-0.4-0.6-0.5-0.9c-0.1-0.4-0.2-0.8-0.2-1.3c0-0.8,0.1-1.5,0.3-2.2s0.5-1.2,0.8-1.7s0.8-0.9,1.3-1.2c0.5-0.3,1-0.5,1.6-0.6l0.2,0.8
	c-0.4,0.1-0.9,0.2-1.2,0.5s-0.7,0.5-1,0.8s-0.5,0.7-0.7,1.1s-0.3,0.8-0.4,1.3c0.1-0.2,0.3-0.4,0.6-0.6s0.7-0.3,1.1-0.3
	c0.8,0,1.3,0.2,1.8,0.6c0.4,0.4,0.6,1,0.6,1.8C47.4,79.4,47.4,79.7,47.2,80z M46.4,79.1c0-0.6-0.1-1-0.4-1.3
	c-0.3-0.3-0.7-0.4-1.2-0.4c-0.4,0-0.7,0.1-1,0.3c-0.3,0.2-0.5,0.4-0.6,0.6c0,0.1,0,0.2,0,0.3c0,0.1,0,0.2,0,0.2c0,0.2,0,0.5,0.1,0.7
	s0.2,0.5,0.3,0.6c0.1,0.2,0.3,0.3,0.5,0.5c0.2,0.1,0.5,0.2,0.8,0.2c0.2,0,0.4,0,0.6-0.1c0.2-0.1,0.3-0.2,0.5-0.4
	c0.1-0.2,0.2-0.3,0.3-0.6C46.4,79.6,46.4,79.4,46.4,79.1z M49.9,80.5c-0.4-0.8-0.7-1.8-0.7-3.2c0-1.4,0.2-2.5,0.7-3.3
	c0.5-0.7,1.2-1.1,2-1.1c1,0,1.7,0.4,2.1,1.1c0.4,0.7,0.7,1.8,0.7,3.3c0,1.4-0.2,2.5-0.7,3.3c-0.5,0.7-1.2,1.1-2.1,1.1
	C51.1,81.7,50.4,81.3,49.9,80.5z M50.3,77.3c0,0.5,0,1,0.1,1.4s0.2,0.8,0.3,1.1s0.3,0.5,0.5,0.7s0.5,0.3,0.8,0.3
	c0.6,0,1.1-0.3,1.3-0.8c0.3-0.6,0.4-1.4,0.4-2.7c0-0.5,0-1-0.1-1.4s-0.2-0.8-0.3-1.1c-0.1-0.3-0.3-0.6-0.5-0.7
	c-0.2-0.2-0.5-0.3-0.8-0.3c-0.6,0-1,0.3-1.3,0.9S50.3,76.1,50.3,77.3z M44.1,99.8c-0.3,0-0.6,0-0.8-0.1s-0.4-0.1-0.6-0.2l-0.3,0.8
	c0.2,0.1,0.4,0.1,0.7,0.2c0.2,0,0.6,0.1,0.9,0.1c0.4,0,0.8-0.1,1.1-0.2c0.4-0.1,0.7-0.3,0.9-0.5c0.3-0.2,0.5-0.5,0.6-0.9
	s0.2-0.7,0.2-1.2c0-0.8-0.2-1.4-0.7-1.9c-0.5-0.4-1.1-0.7-1.9-0.7h-0.5V93h2.8v-0.9h-3.7v4.2l1-0.1c0.6,0,1.1,0.1,1.5,0.4
	s0.5,0.7,0.5,1.3c0,0.6-0.2,1.1-0.5,1.4C45.1,99.7,44.6,99.8,44.1,99.8z M49.9,99.5c-0.4-0.8-0.7-1.8-0.7-3.2c0-1.4,0.2-2.5,0.7-3.3
	c0.5-0.7,1.2-1.1,2-1.1c1,0,1.7,0.4,2.1,1.1c0.4,0.7,0.7,1.8,0.7,3.3c0,1.4-0.2,2.5-0.7,3.3c-0.5,0.7-1.2,1.1-2.1,1.1
	C51.1,100.7,50.4,100.3,49.9,99.5z M50.3,96.3c0,0.5,0,1,0.1,1.4s0.2,0.8,0.3,1.1s0.3,0.5,0.5,0.7s0.5,0.3,0.8,0.3
	c0.6,0,1.1-0.3,1.3-0.8c0.3-0.6,0.4-1.4,0.4-2.7c0-0.5,0-1-0.1-1.4s-0.2-0.8-0.3-1.1c-0.1-0.3-0.3-0.6-0.5-0.7
	c-0.2-0.2-0.5-0.3-0.8-0.3c-0.6,0-1,0.3-1.3,0.9S50.3,95.1,50.3,96.3z M45.4,119h-3.7v-0.4l4-5.6h0.6v5.1h1.4v0.8h-1.4v2.6h-0.9
	L45.4,119L45.4,119z M45.4,118.1v-2.6l0.1-1l0,0l-0.4,0.8l-1.7,2.3l-0.6,0.6l0.8-0.1L45.4,118.1z M49.9,120.5
	c-0.4-0.8-0.7-1.8-0.7-3.2c0-1.4,0.2-2.5,0.7-3.3c0.5-0.7,1.2-1.1,2-1.1c1,0,1.7,0.4,2.1,1.1c0.4,0.7,0.7,1.8,0.7,3.3
	c0,1.4-0.2,2.5-0.7,3.3c-0.5,0.7-1.2,1.1-2.1,1.1C51.1,121.7,50.4,121.3,49.9,120.5z M50.3,117.3c0,0.5,0,1,0.1,1.4s0.2,0.8,0.3,1.1
	s0.3,0.5,0.5,0.7s0.5,0.3,0.8,0.3c0.6,0,1.1-0.3,1.3-0.8c0.3-0.6,0.4-1.4,0.4-2.7c0-0.5,0-1-0.1-1.4s-0.2-0.8-0.3-1.1
	c-0.1-0.3-0.3-0.6-0.5-0.7c-0.2-0.2-0.5-0.3-0.8-0.3c-0.6,0-1,0.3-1.3,0.9S50.3,116.1,50.3,117.3z M197.2,80
	c-0.1,0.3-0.3,0.6-0.5,0.9c-0.2,0.2-0.5,0.4-0.8,0.6c-0.3,0.1-0.7,0.2-1.1,0.2s-0.8-0.1-1.1-0.2s-0.6-0.3-0.8-0.6s-0.4-0.6-0.5-0.9
	c-0.1-0.4-0.2-0.8-0.2-1.3c0-0.8,0.1-1.5,0.3-2.2s0.5-1.2,0.8-1.7s0.8-0.9,1.3-1.2c0.5-0.3,1-0.5,1.6-0.6l0.2,0.8
	c-0.4,0.1-0.9,0.2-1.2,0.5s-0.7,0.5-1,0.8s-0.5,0.7-0.7,1.1s-0.3,0.8-0.4,1.3c0.1-0.2,0.3-0.4,0.6-0.6s0.7-0.3,1.1-0.3
	c0.8,0,1.3,0.2,1.8,0.6c0.4,0.4,0.6,1,0.6,1.8C197.4,79.4,197.4,79.7,197.2,80z M196.4,79.1c0-0.6-0.1-1-0.4-1.3
	c-0.3-0.3-0.7-0.4-1.2-0.4c-0.4,0-0.7,0.1-1,0.3c-0.3,0.2-0.5,0.4-0.6,0.6c0,0.1,0,0.2,0,0.3c0,0.1,0,0.2,0,0.2c0,0.2,0,0.5,0.1,0.7
	s0.2,0.5,0.3,0.6c0.1,0.2,0.3,0.3,0.5,0.5c0.2,0.1,0.5,0.2,0.8,0.2c0.2,0,0.4,0,0.6-0.1s0.3-0.2,0.5-0.4c0.1-0.2,0.2-0.3,0.3-0.6
	C196.4,79.6,196.4,79.4,196.4,79.1z M199.9,80.5c-0.4-0.8-0.7-1.8-0.7-3.2c0-1.4,0.2-2.5,0.7-3.3c0.5-0.7,1.2-1.1,2-1.1
	c1,0,1.7,0.4,2.1,1.1s0.7,1.8,0.7,3.3c0,1.4-0.2,2.5-0.7,3.3c-0.5,0.7-1.2,1.1-2.1,1.1C201.1,81.7,200.4,81.3,199.9,80.5z
	 M200.3,77.3c0,0.5,0,1,0.1,1.4s0.2,0.8,0.3,1.1s0.3,0.5,0.5,0.7s0.5,0.3,0.8,0.3c0.6,0,1.1-0.3,1.3-0.8c0.3-0.6,0.4-1.4,0.4-2.7
	c0-0.5,0-1-0.1-1.4s-0.2-0.8-0.3-1.1c-0.1-0.3-0.3-0.6-0.5-0.7c-0.2-0.2-0.5-0.3-0.8-0.3c-0.6,0-1,0.3-1.3,0.9
	S200.3,76.1,200.3,77.3z M194.1,99.8c-0.3,0-0.6,0-0.8-0.1s-0.4-0.1-0.6-0.2l-0.3,0.8c0.2,0.1,0.4,0.1,0.7,0.2
	c0.2,0,0.6,0.1,0.9,0.1c0.4,0,0.8-0.1,1.1-0.2c0.4-0.1,0.7-0.3,0.9-0.5c0.3-0.2,0.5-0.5,0.6-0.9s0.2-0.7,0.2-1.2
	c0-0.8-0.2-1.4-0.7-1.9c-0.5-0.4-1.1-0.7-1.9-0.7h-0.5V93h2.8v-0.9h-3.7v4.2l1-0.1c0.6,0,1.1,0.1,1.5,0.4s0.5,0.7,0.5,1.3
	c0,0.6-0.2,1.1-0.5,1.4C195.1,99.7,194.6,99.8,194.1,99.8z M199.9,99.5c-0.4-0.8-0.7-1.8-0.7-3.2c0-1.4,0.2-2.5,0.7-3.3
	c0.5-0.7,1.2-1.1,2-1.1c1,0,1.7,0.4,2.1,1.1s0.7,1.8,0.7,3.3c0,1.4-0.2,2.5-0.7,3.3c-0.5,0.7-1.2,1.1-2.1,1.1
	C201.1,100.7,200.4,100.3,199.9,99.5z M200.3,96.3c0,0.5,0,1,0.1,1.4s0.2,0.8,0.3,1.1s0.3,0.5,0.5,0.7s0.5,0.3,0.8,0.3
	c0.6,0,1.1-0.3,1.3-0.8c0.3-0.6,0.4-1.4,0.4-2.7c0-0.5,0-1-0.1-1.4s-0.2-0.8-0.3-1.1c-0.1-0.3-0.3-0.6-0.5-0.7
	c-0.2-0.2-0.5-0.3-0.8-0.3c-0.6,0-1,0.3-1.3,0.9S200.3,95.1,200.3,96.3z M195.4,119h-3.7v-0.4l4-5.6h0.6v5.1h1.4v0.8h-1.4v2.6h-0.9
	L195.4,119L195.4,119z M195.4,118.1v-2.6l0.1-1l0,0l-0.4,0.8l-1.7,2.3l-0.6,0.6l0.8-0.1L195.4,118.1z M199.9,120.5
	c-0.4-0.8-0.7-1.8-0.7-3.2c0-1.4,0.2-2.5,0.7-3.3c0.5-0.7,1.2-1.1,2-1.1c1,0,1.7,0.4,2.1,1.1s0.7,1.8,0.7,3.3c0,1.4-0.2,2.5-0.7,3.3
	c-0.5,0.7-1.2,1.1-2.1,1.1C201.1,121.7,200.4,121.3,199.9,120.5z M200.3,117.3c0,0.5,0,1,0.1,1.4s0.2,0.8,0.3,1.1s0.3,0.5,0.5,0.7
	s0.5,0.3,0.8,0.3c0.6,0,1.1-0.3,1.3-0.8c0.3-0.6,0.4-1.4,0.4-2.7c0-0.5,0-1-0.1-1.4s-0.2-0.8-0.3-1.1c-0.1-0.3-0.3-0.6-0.5-0.7
	c-0.2-0.2-0.5-0.3-0.8-0.3c-0.6,0-1,0.3-1.3,0.9S200.3,116.1,200.3,117.3z M77.3,133.8h84c0.1,0,0.2-0.1,0.2-0.2s-0.1-0.2-0.2-0.2
	h-84c-0.1,0-0.2,0.1-0.2,0.2S77.1,133.8,77.3,133.8z M77.3,154.8h84c0.1,0,0.2-0.1,0.2-0.2s-0.1-0.2-0.2-0.2h-84
	c-0.1,0-0.2,0.1-0.2,0.2S77.1,154.8,77.3,154.8z M77.3,173.8h84c0.1,0,0.2-0.1,0.2-0.2s-0.1-0.2-0.2-0.2h-84c-0.1,0-0.2,0.1-0.2,0.2
	S77.1,173.8,77.3,173.8z M47,137c-0.1-0.3-0.3-0.5-0.5-0.7s-0.4-0.4-0.7-0.5s-0.6-0.2-0.9-0.2l-0.4,0.1l0,0l0.4-0.3l1.9-2.9v-0.3
	h-4.3v0.9h2.4l0.8-0.1l-0.6,0.5l-1.7,2.7v0.3h0.9c0.6,0,1,0.1,1.4,0.4c0.4,0.3,0.5,0.7,0.5,1.2c0,0.3,0,0.5-0.1,0.7
	s-0.2,0.4-0.4,0.6s-0.4,0.3-0.6,0.4c-0.2,0.1-0.5,0.1-0.8,0.1s-0.6,0-0.8-0.1s-0.5-0.1-0.7-0.2l-0.3,0.9c0.2,0.1,0.5,0.2,0.8,0.2
	c0.3,0.1,0.6,0.1,1,0.1s0.8-0.1,1.1-0.2c0.4-0.1,0.7-0.3,0.9-0.5s0.5-0.5,0.6-0.8c0.2-0.3,0.2-0.7,0.2-1.2
	C47.2,137.6,47.1,137.3,47,137z M49.9,139.5c-0.4-0.8-0.7-1.8-0.7-3.2s0.2-2.5,0.7-3.3c0.5-0.7,1.2-1.1,2-1.1c1,0,1.7,0.4,2.1,1.1
	c0.4,0.7,0.7,1.8,0.7,3.3c0,1.4-0.2,2.5-0.7,3.3c-0.5,0.7-1.2,1.1-2.1,1.1C51.1,140.7,50.4,140.3,49.9,139.5z M50.3,136.3
	c0,0.5,0,1,0.1,1.4s0.2,0.8,0.3,1.1s0.3,0.5,0.5,0.7s0.5,0.3,0.8,0.3c0.6,0,1.1-0.3,1.3-0.8c0.3-0.6,0.4-1.4,0.4-2.7
	c0-0.5,0-1-0.1-1.4s-0.2-0.8-0.3-1.1s-0.3-0.6-0.5-0.7c-0.2-0.2-0.5-0.3-0.8-0.3c-0.6,0-1,0.3-1.3,0.9
	C50.4,134.3,50.3,135.1,50.3,136.3z M45.2,155.4c-0.2,0.4-0.4,0.8-0.7,1.1c-0.3,0.4-0.5,0.7-0.8,1.1s-0.5,0.6-0.8,0.9
	c-0.2,0.3-0.5,0.5-0.6,0.7v0.3h4.8v-0.9h-2.6l-0.8,0.1l0,0l0.6-0.5c0.3-0.4,0.6-0.8,0.9-1.2c0.3-0.4,0.6-0.9,0.8-1.3
	c0.3-0.4,0.5-0.9,0.6-1.3c0.2-0.4,0.2-0.9,0.2-1.3c0-0.3,0-0.6-0.1-0.8s-0.2-0.5-0.4-0.7s-0.4-0.3-0.7-0.4c-0.3-0.1-0.6-0.1-0.9-0.1
	c-0.4,0-0.9,0.1-1.2,0.2c-0.4,0.1-0.7,0.3-1,0.6l0.4,0.7c0.2-0.2,0.5-0.3,0.7-0.4c0.3-0.1,0.6-0.2,0.9-0.2c0.5,0,0.8,0.1,1,0.4
	c0.2,0.3,0.3,0.6,0.3,1c0,0.3-0.1,0.7-0.2,1.1S45.4,155,45.2,155.4z M49.9,158.5c-0.4-0.8-0.7-1.8-0.7-3.2s0.2-2.5,0.7-3.3
	c0.5-0.7,1.2-1.1,2-1.1c1,0,1.7,0.4,2.1,1.1c0.4,0.7,0.7,1.8,0.7,3.3c0,1.4-0.2,2.5-0.7,3.3c-0.5,0.7-1.2,1.1-2.1,1.1
	C51.1,159.7,50.4,159.3,49.9,158.5z M50.3,155.3c0,0.5,0,1,0.1,1.4s0.2,0.8,0.3,1.1s0.3,0.5,0.5,0.7s0.5,0.3,0.8,0.3
	c0.6,0,1.1-0.3,1.3-0.8c0.3-0.6,0.4-1.4,0.4-2.7c0-0.5,0-1-0.1-1.4s-0.2-0.8-0.3-1.1s-0.3-0.6-0.5-0.7c-0.2-0.2-0.5-0.3-0.8-0.3
	c-0.6,0-1,0.3-1.3,0.9C50.4,153.3,50.3,154.1,50.3,155.3z M44.5,179.7h-1.7v0.9h4.3v-0.9h-1.6V172h-0.4l-2.6,2l0.5,0.6l1.3-0.9
	l0.5-0.6l-0.1,0.7v5.9H44.5z M49.9,179.5c-0.4-0.8-0.7-1.8-0.7-3.2s0.2-2.5,0.7-3.3c0.5-0.7,1.2-1.1,2-1.1c1,0,1.7,0.4,2.1,1.1
	c0.4,0.7,0.7,1.8,0.7,3.3c0,1.4-0.2,2.5-0.7,3.3c-0.5,0.7-1.2,1.1-2.1,1.1C51.1,180.7,50.4,180.3,49.9,179.5z M50.3,176.3
	c0,0.5,0,1,0.1,1.4s0.2,0.8,0.3,1.1s0.3,0.5,0.5,0.7s0.5,0.3,0.8,0.3c0.6,0,1.1-0.3,1.3-0.8c0.3-0.6,0.4-1.4,0.4-2.7
	c0-0.5,0-1-0.1-1.4s-0.2-0.8-0.3-1.1s-0.3-0.6-0.5-0.7c-0.2-0.2-0.5-0.3-0.8-0.3c-0.6,0-1,0.3-1.3,0.9
	C50.4,174.3,50.3,175.1,50.3,176.3z M197,137c-0.1-0.3-0.3-0.5-0.5-0.7s-0.4-0.4-0.7-0.5s-0.6-0.2-0.9-0.2l-0.4,0.1l0,0l0.4-0.3
	l1.9-2.9v-0.3h-4.3v0.9h2.4l0.8-0.1l-0.6,0.5l-1.7,2.7v0.3h0.9c0.6,0,1,0.1,1.4,0.4c0.4,0.3,0.5,0.7,0.5,1.2c0,0.3,0,0.5-0.1,0.7
	s-0.2,0.4-0.4,0.6c-0.2,0.2-0.4,0.3-0.6,0.4c-0.2,0.1-0.5,0.1-0.8,0.1s-0.6,0-0.8-0.1s-0.5-0.1-0.7-0.2l-0.3,0.9
	c0.2,0.1,0.5,0.2,0.8,0.2c0.3,0.1,0.6,0.1,1,0.1s0.8-0.1,1.1-0.2c0.4-0.1,0.7-0.3,0.9-0.5s0.5-0.5,0.6-0.8c0.2-0.3,0.2-0.7,0.2-1.2
	C197.2,137.6,197.1,137.3,197,137z M199.9,139.5c-0.4-0.8-0.7-1.8-0.7-3.2s0.2-2.5,0.7-3.3c0.5-0.7,1.2-1.1,2-1.1
	c1,0,1.7,0.4,2.1,1.1s0.7,1.8,0.7,3.3c0,1.4-0.2,2.5-0.7,3.3c-0.5,0.7-1.2,1.1-2.1,1.1C201.1,140.7,200.4,140.3,199.9,139.5z
	 M200.3,136.3c0,0.5,0,1,0.1,1.4s0.2,0.8,0.3,1.1s0.3,0.5,0.5,0.7s0.5,0.3,0.8,0.3c0.6,0,1.1-0.3,1.3-0.8c0.3-0.6,0.4-1.4,0.4-2.7
	c0-0.5,0-1-0.1-1.4s-0.2-0.8-0.3-1.1s-0.3-0.6-0.5-0.7c-0.2-0.2-0.5-0.3-0.8-0.3c-0.6,0-1,0.3-1.3,0.9
	C200.4,134.3,200.3,135.1,200.3,136.3z M195.2,155.4c-0.2,0.4-0.4,0.8-0.7,1.1c-0.3,0.4-0.5,0.7-0.8,1.1s-0.5,0.6-0.8,0.9
	c-0.2,0.3-0.5,0.5-0.6,0.7v0.3h4.8v-0.9h-2.6l-0.8,0.1l0,0l0.6-0.5c0.3-0.4,0.6-0.8,0.9-1.2s0.6-0.9,0.8-1.3
	c0.3-0.4,0.5-0.9,0.6-1.3c0.2-0.4,0.2-0.9,0.2-1.3c0-0.3,0-0.6-0.1-0.8s-0.2-0.5-0.4-0.7s-0.4-0.3-0.7-0.4c-0.3-0.1-0.6-0.1-0.9-0.1
	c-0.4,0-0.9,0.1-1.2,0.2c-0.4,0.1-0.7,0.3-1,0.6l0.4,0.7c0.2-0.2,0.5-0.3,0.7-0.4c0.3-0.1,0.6-0.2,0.9-0.2c0.5,0,0.8,0.1,1,0.4
	c0.2,0.3,0.3,0.6,0.3,1c0,0.3-0.1,0.7-0.2,1.1S195.4,155,195.2,155.4z M199.9,158.5c-0.4-0.8-0.7-1.8-0.7-3.2s0.2-2.5,0.7-3.3
	c0.5-0.7,1.2-1.1,2-1.1c1,0,1.7,0.4,2.1,1.1c0.4,0.7,0.7,1.8,0.7,3.3c0,1.4-0.2,2.5-0.7,3.3c-0.5,0.7-1.2,1.1-2.1,1.1
	C201.1,159.7,200.4,159.3,199.9,158.5z M200.3,155.3c0,0.5,0,1,0.1,1.4s0.2,0.8,0.3,1.1s0.3,0.5,0.5,0.7s0.5,0.3,0.8,0.3
	c0.6,0,1.1-0.3,1.3-0.8c0.3-0.6,0.4-1.4,0.4-2.7c0-0.5,0-1-0.1-1.4s-0.2-0.8-0.3-1.1s-0.3-0.6-0.5-0.7c-0.2-0.2-0.5-0.3-0.8-0.3
	c-0.6,0-1,0.3-1.3,0.9C200.4,153.3,200.3,154.1,200.3,155.3z M194.5,179.7h-1.7v0.9h4.3v-0.9h-1.6V172h-0.4l-2.6,2l0.5,0.6l1.3-0.9
	l0.5-0.6l-0.1,0.7v5.9H194.5z M199.9,179.5c-0.4-0.8-0.7-1.8-0.7-3.2s0.2-2.5,0.7-3.3c0.5-0.7,1.2-1.1,2-1.1c1,0,1.7,0.4,2.1,1.1
	c0.4,0.7,0.7,1.8,0.7,3.3c0,1.4-0.2,2.5-0.7,3.3c-0.5,0.7-1.2,1.1-2.1,1.1C201.1,180.7,200.4,180.3,199.9,179.5z M200.3,176.3
	c0,0.5,0,1,0.1,1.4s0.2,0.8,0.3,1.1s0.3,0.5,0.5,0.7s0.5,0.3,0.8,0.3c0.6,0,1.1-0.3,1.3-0.8c0.3-0.6,0.4-1.4,0.4-2.7
	c0-0.5,0-1-0.1-1.4s-0.2-0.8-0.3-1.1s-0.3-0.6-0.5-0.7c-0.2-0.2-0.5-0.3-0.8-0.3c-0.6,0-1,0.3-1.3,0.9
	C200.4,174.3,200.3,175.1,200.3,176.3z"/>
</svg>
