<?xml version="1.0" encoding="utf-8"?>
<!-- Generator: Adobe Illustrator 21.0.2, SVG Export Plug-In . SVG Version: 6.00 Build 0)  -->
<svg version="1.1" id="Warstwa_1" xmlns="http://www.w3.org/2000/svg" xmlns:xlink="http://www.w3.org/1999/xlink" x="0px" y="0px"
	 viewBox="0 0 391.5 394" style="enable-background:new 0 0 391.5 394;" xml:space="preserve">
<style type="text/css">
	.st0{fill:#ffdba8;}
</style>
<path class="st0" d="M103.7,357.1l-4.5,7.8c-0.2,0.3-0.5,0.5-0.9,0.5c-0.2,0-0.3,0-0.5-0.1c-0.5-0.3-0.6-0.9-0.4-1.4l1.1-1.9
	c0,0,0,0,0,0l3.4-5.8c0.3-0.5,0.9-0.6,1.4-0.4C103.9,356,104,356.6,103.7,357.1z M147.9,374.2c-0.5-0.1-1.1,0.2-1.2,0.7l-2.3,8.7
	c-0.1,0.5,0.2,1.1,0.7,1.2c0.1,0,0.2,0,0.3,0c0.4,0,0.8-0.3,1-0.7l2.3-8.7C148.8,374.9,148.5,374.3,147.9,374.2z M244.8,374.9
	c-0.1-0.5-0.7-0.9-1.2-0.7c-0.5,0.1-0.9,0.7-0.7,1.2l2.3,8.7c0.1,0.4,0.5,0.7,1,0.7c0.1,0,0.2,0,0.3,0c0.5-0.1,0.9-0.7,0.7-1.2
	L244.8,374.9z M292.8,361.9C292.8,361.9,292.8,361.9,292.8,361.9l-3.4-5.8c-0.3-0.5-0.9-0.6-1.4-0.4c-0.5,0.3-0.6,0.9-0.4,1.4
	l4.5,7.8c0.2,0.3,0.5,0.5,0.9,0.5c0.2,0,0.3,0,0.5-0.1c0.5-0.3,0.6-0.9,0.4-1.4L292.8,361.9z M17.3,243.6c-0.1-0.5-0.7-0.9-1.2-0.7
	l-8.7,2.3c-0.5,0.1-0.9,0.7-0.7,1.2c0.1,0.4,0.5,0.7,1,0.7c0.1,0,0.2,0,0.3,0l2.2-0.6c0,0,0,0,0,0l6.5-1.7
	C17.1,244.6,17.4,244.1,17.3,243.6z M34.4,287.7l-7.8,4.5c-0.5,0.3-0.6,0.9-0.4,1.4c0.2,0.3,0.5,0.5,0.9,0.5c0.2,0,0.3,0,0.5-0.1
	l1.9-1.1c0,0,0,0,0,0l5.8-3.4c0.5-0.3,0.6-0.9,0.4-1.4C35.5,287.6,34.9,287.5,34.4,287.7z M63.7,326.4l-4.8,4.8l-1.6,1.6
	c-0.4,0.4-0.4,1,0,1.4c0.2,0.2,0.5,0.3,0.7,0.3s0.5-0.1,0.7-0.3l1.6-1.6l4.8-4.8c0.4-0.4,0.4-1,0-1.4S64.1,326,63.7,326.4z
	 M364.9,292.2l-7.8-4.5c-0.5-0.3-1.1-0.1-1.4,0.4s-0.1,1.1,0.4,1.4l5.8,3.4c0,0,0,0,0,0l1.9,1.1c0.2,0.1,0.3,0.1,0.5,0.1
	c0.3,0,0.7-0.2,0.9-0.5C365.5,293.1,365.4,292.5,364.9,292.2z M332.6,331.1l-4.8-4.8c-0.4-0.4-1-0.4-1.4,0s-0.4,1,0,1.4l4.8,4.8
	l1.6,1.6c0.2,0.2,0.5,0.3,0.7,0.3s0.5-0.1,0.7-0.3c0.4-0.4,0.4-1,0-1.4L332.6,331.1z M384.1,245.2l-8.7-2.3
	c-0.5-0.1-1.1,0.2-1.2,0.7s0.2,1.1,0.7,1.2l6.5,1.7c0,0,0,0,0,0l2.2,0.6c0.1,0,0.2,0,0.3,0c0.4,0,0.8-0.3,1-0.7
	C384.9,245.9,384.6,245.3,384.1,245.2z M170.2,1.7c-0.5,0.1-0.9,0.6-0.9,1.1l0.3,2.2c0.1,0.5,0.5,0.9,1,0.9c0,0,0.1,0,0.1,0
	c0.5-0.1,0.9-0.6,0.9-1.1l-0.3-2.2C171.2,2,170.7,1.6,170.2,1.7z M121.2,18.3c0.2,0.4,0.5,0.6,0.9,0.6c0.1,0,0.3,0,0.4-0.1
	c0.5-0.2,0.8-0.8,0.5-1.3l-0.9-2.1c-0.2-0.5-0.8-0.8-1.3-0.5c-0.5,0.2-0.8,0.8-0.5,1.3L121.2,18.3z M77.8,43.6
	c0.2,0.3,0.5,0.4,0.8,0.4c0.2,0,0.4-0.1,0.6-0.2c0.4-0.3,0.5-1,0.2-1.4L78,40.6c-0.3-0.4-1-0.5-1.4-0.2c-0.4,0.3-0.5,1-0.2,1.4
	L77.8,43.6z M42.4,79.4c0.2,0.1,0.4,0.2,0.6,0.2c0.3,0,0.6-0.1,0.8-0.4c0.3-0.4,0.3-1.1-0.2-1.4l-1.8-1.4c-0.4-0.3-1.1-0.3-1.4,0.2
	s-0.3,1.1,0.2,1.4L42.4,79.4z M18.3,121.2l-2.1-0.9c-0.5-0.2-1.1,0-1.3,0.5c-0.2,0.5,0,1.1,0.5,1.3l2.1,0.9c0.1,0.1,0.3,0.1,0.4,0.1
	c0.4,0,0.8-0.2,0.9-0.6C19,121.9,18.8,121.4,18.3,121.2z M2.5,171.3l2.2,0.3c0,0,0.1,0,0.1,0c0.5,0,0.9-0.4,1-0.9
	c0.1-0.5-0.3-1-0.9-1.1l-2.2-0.3c-0.5-0.1-1,0.3-1.1,0.9C1.6,170.7,2,171.2,2.5,171.3z M4.8,219.9l-2.2,0.3
	c-0.5,0.1-0.9,0.6-0.9,1.1c0.1,0.5,0.5,0.9,1,0.9c0,0,0.1,0,0.1,0l2.2-0.3c0.5-0.1,0.9-0.6,0.9-1.1C5.8,220.2,5.3,219.8,4.8,219.9z
	 M17.5,268.5l-2.1,0.9c-0.5,0.2-0.8,0.8-0.5,1.3c0.2,0.4,0.5,0.6,0.9,0.6c0.1,0,0.3,0,0.4-0.1l2.1-0.9c0.5-0.2,0.8-0.8,0.5-1.3
	C18.6,268.5,18,268.3,17.5,268.5z M42.4,312.1l-1.8,1.4c-0.4,0.3-0.5,1-0.2,1.4c0.2,0.3,0.5,0.4,0.8,0.4c0.2,0,0.4-0.1,0.6-0.2
	l1.8-1.4c0.4-0.3,0.5-1,0.2-1.4C43.5,311.9,42.9,311.8,42.4,312.1z M77.8,347.8l-1.4,1.8c-0.3,0.4-0.3,1.1,0.2,1.4
	c0.2,0.1,0.4,0.2,0.6,0.2c0.3,0,0.6-0.1,0.8-0.4l1.4-1.8c0.3-0.4,0.3-1.1-0.2-1.4C78.7,347.3,78.1,347.4,77.8,347.8z M122.5,372.6
	c-0.5-0.2-1.1,0-1.3,0.5l-0.9,2.1c-0.2,0.5,0,1.1,0.5,1.3c0.1,0.1,0.3,0.1,0.4,0.1c0.4,0,0.8-0.2,0.9-0.6l0.9-2.1
	C123.2,373.4,123,372.9,122.5,372.6z M170.7,385.6c-0.5-0.1-1,0.3-1.1,0.9l-0.3,2.2c-0.1,0.5,0.3,1,0.9,1.1c0,0,0.1,0,0.1,0
	c0.5,0,0.9-0.4,1-0.9l0.3-2.2C171.7,386.2,171.3,385.7,170.7,385.6z M220.7,385.6c-0.5,0.1-0.9,0.6-0.9,1.1l0.3,2.2
	c0.1,0.5,0.5,0.9,1,0.9c0,0,0.1,0,0.1,0c0.5-0.1,0.9-0.6,0.9-1.1l-0.3-2.2C221.8,385.9,221.3,385.5,220.7,385.6z M270.3,373.2
	c-0.2-0.5-0.8-0.8-1.3-0.5c-0.5,0.2-0.8,0.8-0.5,1.3l0.9,2.1c0.2,0.4,0.5,0.6,0.9,0.6c0.1,0,0.3,0,0.4-0.1c0.5-0.2,0.8-0.8,0.5-1.3
	L270.3,373.2z M313.7,347.8c-0.3-0.4-1-0.5-1.4-0.2c-0.4,0.3-0.5,1-0.2,1.4l1.4,1.8c0.2,0.3,0.5,0.4,0.8,0.4c0.2,0,0.4-0.1,0.6-0.2
	c0.4-0.3,0.5-1,0.2-1.4L313.7,347.8z M349.1,312.1c-0.4-0.3-1.1-0.3-1.4,0.2c-0.3,0.4-0.3,1.1,0.2,1.4l1.8,1.4
	c0.2,0.1,0.4,0.2,0.6,0.2c0.3,0,0.6-0.1,0.8-0.4c0.3-0.4,0.3-1.1-0.2-1.4L349.1,312.1z M376,269.3l-2.1-0.9c-0.5-0.2-1.1,0-1.3,0.5
	c-0.2,0.5,0,1.1,0.5,1.3l2.1,0.9c0.1,0.1,0.3,0.1,0.4,0.1c0.4,0,0.8-0.2,0.9-0.6C376.8,270.1,376.5,269.5,376,269.3z M388.9,220.2
	l-2.2-0.3c-0.5-0.1-1,0.3-1.1,0.9c-0.1,0.5,0.3,1,0.9,1.1l2.2,0.3c0,0,0.1,0,0.1,0c0.5,0,0.9-0.4,1-0.9
	C389.9,220.7,389.5,220.2,388.9,220.2z M386.6,171.6c0,0,0.1,0,0.1,0l2.2-0.3c0.5-0.1,0.9-0.6,0.9-1.1c-0.1-0.5-0.6-0.9-1.1-0.9
	l-2.2,0.3c-0.5,0.1-0.9,0.6-0.9,1.1C385.7,171.2,386.1,171.6,386.6,171.6z M373.6,123.1c0.1,0,0.3,0,0.4-0.1l2.1-0.9
	c0.5-0.2,0.8-0.8,0.5-1.3c-0.2-0.5-0.8-0.8-1.3-0.5l-2.1,0.9c-0.5,0.2-0.8,0.8-0.5,1.3C372.8,122.8,373.2,123.1,373.6,123.1z
	 M348.4,79.6c0.2,0,0.4-0.1,0.6-0.2l1.8-1.4c0.4-0.3,0.5-1,0.2-1.4c-0.3-0.4-1-0.5-1.4-0.2l-1.8,1.4c-0.4,0.3-0.5,1-0.2,1.4
	C347.9,79.4,348.1,79.6,348.4,79.6z M312.9,44c0.3,0,0.6-0.1,0.8-0.4l1.4-1.8c0.3-0.4,0.3-1.1-0.2-1.4c-0.4-0.3-1.1-0.3-1.4,0.2
	l-1.4,1.8c-0.3,0.4-0.3,1.1,0.2,1.4C312.5,44,312.7,44,312.9,44z M269,18.8c0.1,0.1,0.3,0.1,0.4,0.1c0.4,0,0.8-0.2,0.9-0.6l0.9-2.1
	c0.2-0.5,0-1.1-0.5-1.3c-0.5-0.2-1.1,0-1.3,0.5l-0.9,2.1C268.3,18,268.5,18.6,269,18.8z M221.3,1.7c-0.5-0.1-1,0.3-1.1,0.9l-0.3,2.2
	c-0.1,0.5,0.3,1,0.9,1.1c0,0,0.1,0,0.1,0c0.5,0,0.9-0.4,1-0.9l0.3-2.2C222.2,2.2,221.8,1.7,221.3,1.7z M195.7,11c0.6,0,1-0.4,1-1
	V3.3V1c0-0.6-0.4-1-1-1s-1,0.4-1,1v2.3V10C194.7,10.6,195.2,11,195.7,11z M195.7,383c-0.6,0-1,0.4-1,1v2.3v6.8c0,0.6,0.4,1,1,1
	s1-0.4,1-1v-6.8V384C196.7,383.4,196.3,383,195.7,383z M60.3,58.9l-1.6-1.6c-0.4-0.4-1-0.4-1.4,0s-0.4,1,0,1.4l1.6,1.6l4.8,4.8
	c0.2,0.2,0.5,0.3,0.7,0.3s0.5-0.1,0.7-0.3c0.4-0.4,0.4-1,0-1.4L60.3,58.9z M26.6,99.2l7.8,4.5c0.2,0.1,0.3,0.1,0.5,0.1
	c0.3,0,0.7-0.2,0.9-0.5c0.3-0.5,0.1-1.1-0.4-1.4l-5.8-3.4c0,0,0,0,0,0l-1.9-1.1c-0.5-0.3-1.1-0.1-1.4,0.4
	C25.9,98.3,26.1,99,26.6,99.2z M7.4,146.3l8.7,2.3c0.1,0,0.2,0,0.3,0c0.4,0,0.8-0.3,1-0.7c0.1-0.5-0.2-1.1-0.7-1.2l-6.5-1.7
	c0,0,0,0,0,0l-2.2-0.6c-0.5-0.1-1.1,0.2-1.2,0.7C6.5,145.6,6.8,146.2,7.4,146.3z M10,196.7c0.6,0,1-0.4,1-1s-0.4-1-1-1H3.3H1
	c-0.6,0-1,0.4-1,1s0.4,1,1,1h2.3H10z M374.2,147.9c0.1,0.4,0.5,0.7,1,0.7c0.1,0,0.2,0,0.3,0l8.7-2.3c0.5-0.1,0.9-0.7,0.7-1.2
	c-0.1-0.4-0.4-0.7-0.8-0.7c-0.1,0-0.3,0-0.4,0l-2.2,0.6c0,0,0,0,0,0l-6.5,1.7C374.4,146.8,374,147.4,374.2,147.9z M327.1,65.4
	c0.3,0,0.5-0.1,0.7-0.3l4.8-4.8l1.6-1.6c0.4-0.4,0.4-1,0-1.4s-1-0.4-1.4,0l-1.6,1.6l-4.8,4.8c-0.4,0.4-0.4,1,0,1.4
	C326.6,65.3,326.8,65.4,327.1,65.4z M293.6,26.2c-0.5-0.3-1.1-0.1-1.4,0.4l-4.5,7.8c-0.3,0.5-0.1,1.1,0.4,1.4
	c0.2,0.1,0.3,0.1,0.5,0.1c0.3,0,0.7-0.2,0.9-0.5l3.4-5.8c0,0,0,0,0,0l1.1-1.9C294.2,27.1,294.1,26.5,293.6,26.2z M243.6,17.3
	c0.1,0,0.2,0,0.3,0c0.4,0,0.8-0.3,1-0.7l1.7-6.5c0,0,0,0,0,0l0.6-2.2c0.1-0.5-0.2-1.1-0.7-1.2c-0.5-0.1-1.1,0.2-1.2,0.7l-2.3,8.7
	C242.7,16.6,243,17.2,243.6,17.3z M98.6,29.5C98.6,29.5,98.6,29.5,98.6,29.5l3.4,5.8c0.2,0.3,0.5,0.5,0.9,0.5c0.2,0,0.3,0,0.5-0.1
	c0.5-0.3,0.6-0.9,0.4-1.4l-4.5-7.8c-0.3-0.5-0.9-0.6-1.4-0.4c-0.5,0.3-0.6,0.9-0.4,1.4L98.6,29.5z M390.5,194.7h-2.3h-6.8
	c-0.6,0-1,0.4-1,1s0.4,1,1,1h6.8h2.3c0.6,0,1-0.4,1-1S391,194.7,390.5,194.7z M363.9,97.5l-1.9,1.1c0,0,0,0,0,0l-5.8,3.4
	c-0.5,0.3-0.6,0.9-0.4,1.4c0.2,0.3,0.5,0.5,0.9,0.5c0.2,0,0.3,0,0.5-0.1l7.8-4.5c0.5-0.3,0.6-0.9,0.4-1.4
	C365,97.4,364.4,97.2,363.9,97.5z M145,10.1C145,10.1,145,10.1,145,10.1l1.7,6.5c0.1,0.4,0.5,0.7,1,0.7c0.1,0,0.2,0,0.3,0
	c0.5-0.1,0.9-0.7,0.7-1.2l-2.3-8.7c-0.1-0.4-0.4-0.7-0.8-0.7c-0.1,0-0.3,0-0.4,0c-0.5,0.1-0.9,0.7-0.7,1.2L145,10.1z M193.3,32.8
	c0-1.5,0-2.9-0.1-4.1l0,0c0.5,1.1,1.1,2.3,1.6,3.3l2,3.6h2.2v-9.4h-2V29c0,1.4,0,2.7,0.2,3.9h0c-0.4-1.1-1-2.2-1.5-3.2l-2-3.5h-2.5
	v9.4h2V32.8z M144.9,35.1l-0.6,0.8l-1,2.7l0.2,0.9l1-0.3c0.7-0.2,1.2-0.2,1.5,0c0.4,0.2,0.6,0.5,0.8,1c0.1,0.4,0.1,0.8-0.1,1.2
	c-0.2,0.4-0.6,0.6-1.2,0.8c-0.4,0.1-0.7,0.1-1,0.1s-0.6,0-0.9-0.1l-0.1,1.6c0.3,0.1,0.7,0.1,1.1,0c0.4,0,0.9-0.1,1.3-0.2
	c0.5-0.1,0.9-0.3,1.3-0.5c0.4-0.2,0.7-0.5,0.9-0.9c0.2-0.3,0.4-0.7,0.5-1.2c0.1-0.4,0-0.9-0.1-1.4c-0.1-0.4-0.3-0.8-0.5-1.1
	c-0.2-0.3-0.5-0.5-0.7-0.7c-0.3-0.2-0.6-0.3-0.9-0.3c-0.3,0-0.6,0-1,0l-0.5,0.2l0-0.1l0.5-0.5l1.2-3.1l-0.3-1l-5.2,1.4l0.4,1.5
	l2.3-0.6L144.9,35.1z M156.6,36.3l0.4,1.4l-1.5,0.4l0.7,2.6l-1.6,0.4l-0.7-2.6l-4.1,1.1l-0.3-1l2.7-7l1.4-0.4l1.5,5.5L156.6,36.3z
	 M153.5,37.1l-0.6-2.1l-0.2-1.2l-0.1,0l-0.2,1.1l-0.9,2.2l-0.5,0.7l0.8-0.3L153.5,37.1z M160.5,38.1c-0.4,0.1-0.7,0.2-0.9,0.2
	c-0.3,0-0.5,0-0.7,0l-0.1,1.6c0.3,0,0.6,0.1,1,0c0.4,0,0.8-0.1,1.2-0.2c0.5-0.1,1-0.3,1.4-0.6c0.4-0.3,0.7-0.6,1-0.9
	c0.2-0.4,0.4-0.8,0.5-1.2s0-0.9-0.1-1.5c-0.1-0.5-0.3-0.8-0.5-1.2c-0.2-0.3-0.5-0.6-0.8-0.8c-0.3-0.2-0.7-0.3-1.1-0.4
	c-0.4,0-0.8,0-1.3,0.1l-0.5,0.2l-0.5-1.8l3.1-0.8l-0.4-1.6l-4.7,1.2l1.3,4.9l1.1-0.3c0.7-0.2,1.2-0.2,1.7,0c0.4,0.2,0.7,0.5,0.9,1
	c0.1,0.5,0.1,0.9-0.2,1.3S161.1,37.9,160.5,38.1z M102.2,55.5l2-1.2l0.9-0.7l-0.4,0.9l-0.3,2.8l0.5,0.8l0.9-0.5
	c0.6-0.3,1.1-0.5,1.5-0.4c0.4,0.1,0.7,0.3,1,0.8c0.2,0.4,0.3,0.8,0.2,1.2c-0.1,0.4-0.4,0.8-0.9,1.1c-0.3,0.2-0.6,0.3-0.9,0.4
	c-0.3,0.1-0.6,0.1-0.8,0.1l0.3,1.6c0.3,0,0.7-0.1,1.1-0.3c0.4-0.2,0.8-0.3,1.2-0.5c0.4-0.2,0.8-0.5,1.1-0.9c0.3-0.3,0.5-0.7,0.7-1.1
	c0.1-0.4,0.2-0.8,0.2-1.3c0-0.4-0.2-0.9-0.5-1.4c-0.2-0.4-0.5-0.7-0.8-0.9s-0.6-0.4-0.9-0.5c-0.3-0.1-0.6-0.1-0.9-0.1
	c-0.3,0-0.6,0.1-0.9,0.3l-0.5,0.4l0-0.1l0.3-0.6l0.4-3.3l-0.5-0.9l-4.6,2.7L102.2,55.5z M111.1,50.4l0.9-0.7l-0.4,0.9l-0.3,2.8
	l0.5,0.8l0.9-0.5c0.6-0.3,1.1-0.5,1.5-0.4c0.4,0.1,0.7,0.3,1,0.8c0.2,0.4,0.3,0.8,0.2,1.2c-0.1,0.4-0.4,0.8-0.9,1.1
	c-0.3,0.2-0.6,0.3-0.9,0.4c-0.3,0.1-0.6,0.1-0.8,0.1l0.3,1.6c0.3,0,0.7-0.1,1.1-0.3c0.4-0.2,0.8-0.3,1.2-0.5
	c0.4-0.2,0.8-0.5,1.1-0.9c0.3-0.3,0.5-0.7,0.7-1.1c0.1-0.4,0.2-0.8,0.1-1.3c0-0.4-0.2-0.9-0.5-1.4c-0.2-0.4-0.5-0.7-0.8-0.9
	s-0.6-0.4-0.9-0.5c-0.3-0.1-0.6-0.1-0.9-0.1c-0.3,0-0.6,0.1-0.9,0.3l-0.5,0.4l0-0.1l0.3-0.6l0.4-3.3l-0.5-0.9l-4.6,2.7l0.8,1.3
	L111.1,50.4z M117,50.8c-0.9-1.5-1.2-2.7-1.2-3.8c0.1-1,0.6-1.8,1.6-2.4c1-0.6,2-0.7,2.9-0.2c0.9,0.4,1.8,1.4,2.6,2.9
	c0.9,1.5,1.2,2.8,1.2,3.8c-0.1,1-0.6,1.8-1.6,2.4c-1,0.6-2,0.6-2.9,0.1S117.9,52.3,117,50.8z M117.6,47.4c0.1,0.6,0.4,1.5,1,2.5
	c0.6,1,1.1,1.7,1.6,2.1c0.5,0.4,1,0.5,1.5,0.2c0.5-0.3,0.7-0.7,0.6-1.3c-0.1-0.6-0.4-1.5-1-2.5c-0.6-1-1.1-1.7-1.6-2.1
	c-0.5-0.4-1-0.5-1.5-0.2C117.7,46.3,117.5,46.8,117.6,47.4z M76.9,88.6l-2-2c-1.1-1.1-2.1-2-3-2.9l0,0c1.1,0.5,2.4,0.9,3.5,1.2
	l4,1.1l1.6-1.6l-6.7-6.7l-1.4,1.4l2,2c1,1,1.9,1.9,2.9,2.7l0,0c-1.1-0.5-2.3-0.9-3.4-1.2l-3.8-1.1l-1.8,1.8l6.7,6.7L76.9,88.6z
	 M85,80.4l-2.2-3.5c-0.5-0.8-1-1.6-1.7-2.4l0,0c0.8,0.7,1.6,1.2,2.4,1.7l3.4,2.3l1.6-1.6l-5-8.4L82.1,70l2.2,3.3
	c0.7,0.9,1.3,1.9,1.9,2.7l0,0c-0.8-0.6-1.7-1.2-2.6-1.9l-3.3-2.3l-1.6,1.6l2.2,3.3c0.7,1,1.3,2,1.9,2.8l0,0
	c-0.8-0.6-1.8-1.3-2.7-1.9l-3.3-2.2L75.1,77l8.3,5.1L85,80.4z M44.9,121l1.2-2l0.4-1l0.1,1l1.2,2.6l0.8,0.5l0.5-0.9
	c0.3-0.6,0.7-1,1.1-1.1c0.4-0.1,0.8-0.1,1.3,0.2c0.4,0.2,0.6,0.5,0.7,1c0.1,0.4,0,0.9-0.3,1.4c-0.2,0.3-0.4,0.6-0.6,0.8
	c-0.2,0.2-0.4,0.4-0.7,0.5l1.1,1.2c0.3-0.2,0.5-0.4,0.8-0.8c0.3-0.3,0.5-0.7,0.7-1c0.2-0.4,0.4-0.9,0.5-1.3c0.1-0.4,0.1-0.9,0-1.3
	c-0.1-0.4-0.2-0.8-0.5-1.2c-0.3-0.4-0.6-0.7-1.1-1c-0.4-0.2-0.7-0.4-1.1-0.4s-0.7,0-1,0c-0.3,0.1-0.6,0.2-0.8,0.4
	c-0.3,0.2-0.5,0.4-0.7,0.7l-0.2,0.6l-0.1,0l0-0.7l-1.3-3l-0.9-0.5l-2.7,4.6L44.9,121z M48.5,113.7c-0.4-0.9-0.4-1.9,0.2-2.8
	c0.6-1,1.4-1.6,2.4-1.6c1-0.1,2.2,0.3,3.7,1.2c1.5,0.9,2.5,1.8,2.9,2.7c0.4,0.9,0.4,1.9-0.2,2.8c-0.6,1-1.4,1.5-2.4,1.6
	c-1,0-2.3-0.4-3.7-1.2C49.9,115.5,49,114.6,48.5,113.7z M50.2,113.2c0.4,0.5,1.1,1.1,2.1,1.7c1,0.6,1.8,0.9,2.5,1
	c0.7,0.1,1.1-0.1,1.4-0.6c0.3-0.5,0.2-1-0.1-1.5c-0.4-0.5-1.1-1.1-2.2-1.7c-1-0.6-1.8-0.9-2.4-1c-0.7-0.1-1.1,0.1-1.4,0.6
	C49.8,112.2,49.8,112.7,50.2,113.2z M52.5,106.8c-0.4-0.9-0.4-1.9,0.2-2.8c0.6-1,1.4-1.6,2.4-1.6c1-0.1,2.2,0.3,3.7,1.2
	c1.5,0.9,2.5,1.8,2.9,2.7c0.4,0.9,0.4,1.9-0.2,2.8c-0.6,1-1.4,1.5-2.4,1.6c-1,0-2.3-0.4-3.7-1.2C53.9,108.7,52.9,107.8,52.5,106.8z
	 M54.2,106.3c0.4,0.5,1.1,1.1,2.1,1.7c1,0.6,1.8,0.9,2.5,1c0.7,0.1,1.1-0.1,1.4-0.6c0.3-0.5,0.2-1-0.1-1.5c-0.4-0.5-1.1-1.1-2.2-1.7
	c-1-0.6-1.8-0.9-2.4-1c-0.7-0.1-1.1,0.1-1.4,0.6C53.7,105.3,53.8,105.8,54.2,106.3z M30.2,158.6c-0.2,0.3-0.3,0.6-0.4,1
	c-0.2,0.6-0.2,1.2-0.2,1.6c0.1,0.5,0.2,1,0.4,1.4l1.4-0.4c-0.1-0.3-0.2-0.6-0.3-0.9c0-0.3,0-0.6,0.1-0.9c0.1-0.5,0.3-0.8,0.6-0.9
	c0.3-0.1,0.6-0.2,1-0.1c0.3,0.1,0.6,0.2,0.9,0.4c0.3,0.2,0.6,0.5,0.9,0.8c0.3,0.3,0.6,0.6,0.9,1c0.3,0.4,0.6,0.7,0.8,1.1
	c0.3,0.4,0.5,0.7,0.7,1.1c0.2,0.4,0.4,0.7,0.6,0.9l0.9,0.2l1.5-5.7l-1.5-0.4l-0.7,2.6l-0.1,1l-0.1,0l-0.4-0.9
	c-0.3-0.4-0.6-0.8-0.9-1.2c-0.3-0.4-0.7-0.8-1.1-1.2c-0.4-0.4-0.8-0.7-1.2-1c-0.4-0.3-0.9-0.5-1.3-0.6c-0.4-0.1-0.8-0.1-1.1-0.1
	c-0.3,0.1-0.7,0.2-0.9,0.3C30.7,158.1,30.4,158.3,30.2,158.6z M32,154.1c-0.2-0.3-0.3-0.7-0.3-1c0-0.4,0-0.8,0.1-1.2
	c0.1-0.4,0.3-0.8,0.5-1.1c0.2-0.3,0.4-0.5,0.7-0.7c0.3-0.2,0.6-0.3,0.9-0.4c0.3-0.1,0.6,0,1,0.1c0.5,0.1,1,0.4,1.3,0.7
	c0.3,0.3,0.6,0.8,0.7,1.3c0.5-0.5,0.9-0.8,1.4-0.9c0.5-0.2,1-0.2,1.6,0c0.4,0.1,0.8,0.3,1,0.5c0.3,0.2,0.5,0.5,0.7,0.9
	c0.2,0.3,0.3,0.7,0.3,1.1c0,0.4,0,0.8-0.1,1.3c-0.1,0.5-0.3,0.8-0.5,1.2c-0.2,0.3-0.5,0.6-0.8,0.8c-0.3,0.2-0.6,0.3-0.9,0.4
	c-0.3,0.1-0.7,0-1.1-0.1c-0.3-0.1-0.6-0.2-0.8-0.3c-0.2-0.1-0.4-0.3-0.6-0.5s-0.3-0.4-0.4-0.7c-0.1-0.2-0.2-0.5-0.3-0.8
	c-0.4,0.4-0.8,0.6-1.2,0.8c-0.4,0.2-0.9,0.2-1.5,0c-0.4-0.1-0.7-0.2-0.9-0.5C32.4,154.6,32.2,154.4,32,154.1z M37.2,153.6
	c0.1,0.5,0.3,0.9,0.6,1.1c0.2,0.2,0.5,0.4,0.8,0.5c0.4,0.1,0.7,0.1,1-0.1c0.3-0.2,0.5-0.5,0.7-0.9c0.1-0.4,0.1-0.8,0-1.1
	c-0.1-0.3-0.4-0.5-0.8-0.6c-0.2-0.1-0.4-0.1-0.6,0c-0.2,0.1-0.4,0.1-0.6,0.3c-0.2,0.1-0.4,0.3-0.5,0.4
	C37.5,153.3,37.4,153.5,37.2,153.6z M33.4,153.2c0.2,0.2,0.4,0.4,0.7,0.5c0.2,0.1,0.4,0.1,0.6,0c0.2,0,0.4-0.1,0.5-0.2
	c0.2-0.1,0.3-0.2,0.5-0.4c0.2-0.1,0.3-0.3,0.4-0.5c-0.3-0.7-0.7-1.1-1.3-1.2c-0.4-0.1-0.7-0.1-0.9,0.1c-0.3,0.2-0.4,0.4-0.5,0.7
	C33.3,152.6,33.3,152.9,33.4,153.2z M34.8,141.8l-1.2,4.7l4.9,1.3l0.2-1.1c0.2-0.7,0.5-1.2,0.8-1.5c0.4-0.3,0.8-0.4,1.3-0.2
	c0.5,0.1,0.9,0.4,1.1,0.8c0.2,0.4,0.2,0.9,0.1,1.5c-0.1,0.4-0.2,0.6-0.3,0.9c-0.1,0.2-0.2,0.4-0.4,0.6l1.3,0.9
	c0.2-0.2,0.4-0.5,0.5-0.9c0.2-0.3,0.3-0.7,0.4-1.1c0.1-0.5,0.2-1,0.2-1.5c0-0.5-0.1-0.9-0.3-1.3c-0.2-0.4-0.5-0.7-0.8-1
	c-0.4-0.3-0.8-0.5-1.3-0.6c-0.4-0.1-0.9-0.2-1.3-0.1c-0.4,0-0.8,0.1-1.1,0.3c-0.3,0.2-0.6,0.4-0.8,0.8c-0.2,0.3-0.4,0.7-0.6,1.1
	l-0.1,0.6l-1.8-0.5l0.8-3.1L34.8,141.8z M30.6,196.6l-3.9,0.7v2.3l9.4-2.2V195l-4.1-0.9c-1-0.2-1.8-0.4-2.9-0.5v0
	c1.1-0.1,2-0.3,2.9-0.4l4.1-0.8V190l-9.4-2.4v2.2l3.9,0.8c1.1,0.2,2.2,0.4,3.3,0.5v0c-1.1,0.1-2.1,0.3-3.2,0.5l-4,0.8v2.3l3.9,0.8
	c1.2,0.2,2.3,0.5,3.3,0.6v0C32.9,196.2,31.7,196.4,30.6,196.6z M41.6,242.3l0.7,2.6l0.5,0.9l-0.1,0l-0.7-0.6
	c-0.4-0.2-0.9-0.4-1.4-0.6c-0.5-0.2-1-0.4-1.5-0.5c-0.5-0.1-1-0.2-1.5-0.3c-0.5,0-1,0-1.5,0.1c-0.4,0.1-0.8,0.3-1,0.5
	c-0.3,0.2-0.5,0.5-0.6,0.8c-0.1,0.3-0.2,0.6-0.2,1c0,0.4,0,0.7,0.1,1.1c0.2,0.6,0.4,1.1,0.7,1.5c0.3,0.4,0.6,0.7,1,1l1.1-1
	c-0.2-0.2-0.5-0.4-0.7-0.6s-0.3-0.5-0.4-0.8c-0.1-0.5-0.1-0.8,0.1-1.1c0.2-0.3,0.5-0.5,0.8-0.6c0.3-0.1,0.6-0.1,1-0.1
	c0.4,0,0.8,0.1,1.2,0.2c0.4,0.1,0.8,0.2,1.3,0.4c0.4,0.2,0.9,0.3,1.3,0.5c0.4,0.2,0.8,0.4,1.2,0.6c0.4,0.2,0.7,0.4,1,0.5l0.9-0.2
	l-1.5-5.7L41.6,242.3z M42.3,240c0-0.3,0.1-0.6,0-1c0-0.4-0.1-0.8-0.2-1.2c-0.1-0.5-0.3-1-0.6-1.4c-0.3-0.4-0.6-0.7-0.9-1
	c-0.4-0.2-0.8-0.4-1.2-0.5c-0.5-0.1-0.9,0-1.5,0.1c-0.5,0.1-0.8,0.3-1.2,0.5c-0.3,0.2-0.6,0.5-0.8,0.8c-0.2,0.3-0.3,0.7-0.4,1.1
	c0,0.4,0,0.8,0.1,1.3l0.2,0.5l-1.8,0.5l-0.8-3.1l-1.6,0.4l1.2,4.7l4.9-1.3l-0.3-1.1c-0.2-0.7-0.2-1.2,0-1.7c0.2-0.4,0.5-0.7,1-0.9
	c0.5-0.1,0.9-0.1,1.3,0.2c0.4,0.2,0.6,0.7,0.8,1.3c0.1,0.4,0.1,0.7,0.2,0.9c0,0.3,0,0.5,0,0.7L42.3,240z M35.8,232.8l-0.3-1.1
	c-0.2-0.7-0.2-1.2,0-1.7c0.2-0.4,0.5-0.7,1-0.9c0.5-0.1,0.9-0.1,1.3,0.2c0.4,0.2,0.6,0.7,0.8,1.3c0.1,0.4,0.1,0.7,0.2,0.9
	c0,0.3,0,0.5,0,0.7l1.6,0.1c0-0.3,0.1-0.6,0-1c0-0.4-0.1-0.8-0.2-1.2c-0.1-0.5-0.3-1-0.6-1.4c-0.3-0.4-0.6-0.7-0.9-1
	c-0.4-0.2-0.8-0.4-1.2-0.5c-0.5-0.1-0.9,0-1.5,0.1c-0.5,0.1-0.8,0.3-1.2,0.5c-0.3,0.2-0.6,0.5-0.8,0.8c-0.2,0.3-0.3,0.7-0.4,1.1
	c0,0.4,0,0.8,0.1,1.3l0.2,0.5l-1.8,0.5l-0.8-3.1l-1.6,0.4l1.2,4.7L35.8,232.8z M54.7,287c-0.2-0.4-0.3-0.8-0.2-1.1
	c0.1-0.3,0.3-0.6,0.7-0.8c0.3-0.2,0.6-0.3,1-0.3c0.4-0.1,0.8-0.1,1.2-0.1c0.4,0,0.9,0,1.3,0.1c0.5,0,0.9,0.1,1.4,0.2
	c0.4,0.1,0.9,0.2,1.3,0.2c0.4,0.1,0.8,0.2,1.1,0.2l0.8-0.5l-2.9-5.1l-1.3,0.8l1.3,2.3l0.7,0.8l-0.1,0l-0.9-0.4
	c-0.5-0.1-1-0.2-1.5-0.2c-0.5-0.1-1.1-0.1-1.6-0.1c-0.5,0-1.1,0.1-1.6,0.1c-0.5,0.1-1,0.3-1.4,0.5c-0.4,0.2-0.7,0.5-0.9,0.7
	c-0.2,0.3-0.3,0.6-0.4,0.9c-0.1,0.3-0.1,0.6,0,1c0.1,0.3,0.2,0.7,0.4,1c0.3,0.5,0.7,1,1.1,1.3c0.4,0.3,0.8,0.5,1.2,0.7l0.8-1.3
	c-0.3-0.1-0.5-0.2-0.8-0.4S54.9,287.3,54.7,287z M56.4,280.6l-7.5-0.8l-0.7-1.3l4.9-2.8l-0.8-1.3l1.3-0.7l0.8,1.3l2.4-1.4l0.8,1.5
	l-2.4,1.4l2.1,3.7L56.4,280.6z M55.3,279.3l-0.5-0.7l-0.8-1.4l-1.9,1.1l-1.1,0.5l0,0l1.1-0.1l2.4,0.3L55.3,279.3z M51.3,274.1
	c-1.5,0.9-2.7,1.2-3.8,1.2c-1-0.1-1.8-0.6-2.4-1.6c-0.6-1-0.7-2-0.2-2.9c0.4-0.9,1.4-1.8,2.9-2.6c1.5-0.9,2.8-1.2,3.8-1.2
	c1,0.1,1.8,0.6,2.4,1.6c0.6,1,0.6,2,0.1,2.9C53.6,272.4,52.7,273.2,51.3,274.1z M50.4,272.5c1-0.6,1.7-1.1,2.1-1.6
	c0.4-0.5,0.5-1,0.2-1.5c-0.3-0.5-0.7-0.7-1.3-0.6c-0.6,0.1-1.5,0.4-2.5,1c-1,0.6-1.7,1.1-2.1,1.6c-0.4,0.5-0.5,1-0.2,1.5
	c0.3,0.5,0.7,0.7,1.4,0.6C48.5,273.4,49.3,273.1,50.4,272.5z M83.4,312.6c-0.9,0.9-1,2.1-0.3,3.7c0.5,1.2,0.7,1.8,0.3,2.2
	c-0.3,0.3-1,0.3-1.6-0.3c-0.7-0.7-0.9-1.3-1.1-1.7l-1.6,0.9c0.2,0.6,0.6,1.3,1.4,2c1.6,1.6,3.4,1.7,4.5,0.5c1-1,0.9-2.3,0.1-3.8
	c-0.5-1.1-0.6-1.6-0.2-2.1c0.4-0.4,1.1-0.4,1.8,0.3c0.6,0.6,1.1,1.5,1.3,2.1l1.6-0.9c-0.2-0.6-0.7-1.5-1.5-2.3
	C86.3,311.4,84.5,311.4,83.4,312.6z M80.7,309.1L80.7,309.1c-0.5,0.8-1.3,1.8-1.9,2.7l-2.2,3.3l1.6,1.6l5.1-8.3l-1.7-1.7l-3.5,2.2
	c-0.8,0.5-1.6,1-2.4,1.7l0,0c0.7-0.8,1.2-1.6,1.7-2.4l2.3-3.4l-1.6-1.6l-8.4,5l1.5,1.5l3.3-2.2c0.9-0.7,1.9-1.3,2.7-1.9l0,0
	c-0.6,0.8-1.2,1.7-1.9,2.6l-2.3,3.3l1.6,1.6l3.3-2.2C78.9,310.4,79.9,309.8,80.7,309.1z M120,337.6l2.3,1.3l1,0.3l0,0.1l-0.9,0.1
	c-0.4,0.2-0.9,0.3-1.4,0.6c-0.5,0.2-1,0.5-1.4,0.7c-0.5,0.3-0.9,0.6-1.3,0.9c-0.4,0.3-0.7,0.7-0.9,1.1c-0.2,0.4-0.3,0.7-0.4,1.1
	c0,0.3,0,0.7,0.1,1c0.1,0.3,0.3,0.6,0.5,0.9c0.2,0.3,0.5,0.5,0.9,0.7c0.5,0.3,1.1,0.5,1.5,0.6c0.5,0.1,1,0.1,1.4,0l0-1.5
	c-0.3,0.1-0.6,0.1-0.9,0c-0.3,0-0.6-0.1-0.9-0.3c-0.4-0.2-0.7-0.5-0.7-0.8c-0.1-0.3,0-0.7,0.2-1c0.2-0.3,0.4-0.5,0.7-0.8
	c0.3-0.2,0.6-0.5,1-0.7c0.4-0.2,0.8-0.4,1.2-0.6c0.4-0.2,0.8-0.4,1.3-0.5c0.4-0.2,0.8-0.3,1.2-0.4c0.4-0.1,0.8-0.2,1.1-0.3l0.5-0.8
	l-5.1-2.9L120,337.6z M116.2,335.4l1.7,1l0.8-1.3l-4.8-2.8l-0.8,1.3l1.6,1l-4.2,7.3l0.9,0.5l4.1-0.6l-0.1-1.3l-1.5,0.1l-1,0.4
	l0.7-0.7L116.2,335.4z M111.2,332c0,1-0.4,2.3-1.2,3.7c-0.9,1.5-1.8,2.4-2.7,2.9c-0.9,0.4-1.9,0.4-2.8-0.2c-1-0.6-1.6-1.4-1.6-2.4
	c-0.1-1,0.3-2.2,1.2-3.7c0.9-1.5,1.8-2.5,2.7-2.9c0.9-0.4,1.9-0.4,2.8,0.2C110.6,330.2,111.2,331,111.2,332z M108.9,330.9
	c-0.5-0.3-1-0.2-1.5,0.1c-0.5,0.4-1.1,1.1-1.7,2.2c-0.6,1-0.9,1.8-1,2.4c-0.1,0.7,0.1,1.1,0.6,1.4c0.5,0.3,1,0.2,1.5-0.1
	c0.5-0.4,1.1-1.1,1.7-2.1c0.6-1,0.9-1.8,1-2.5C109.5,331.7,109.3,331.2,108.9,330.9z M159.3,352.4l1.8,0.5l-2.2,8.1l1,0.3l3.8-1.7
	l-0.5-1.2l-1.4,0.5l-0.9,0.6l0.4-0.9l1.4-5.3l1.9,0.5l0.4-1.5l-5.4-1.4L159.3,352.4z M153.2,352.5c-0.3,0.3-0.5,0.6-0.7,1
	c0.3-0.2,0.6-0.3,0.8-0.3c0.3,0,0.6,0,1,0.1c0.3,0.1,0.7,0.2,1,0.4c0.3,0.2,0.6,0.5,0.8,0.8c0.2,0.3,0.3,0.7,0.4,1.1
	c0.1,0.4,0,0.9-0.1,1.4c-0.1,0.5-0.3,0.9-0.5,1.2c-0.2,0.4-0.5,0.6-0.9,0.8c-0.3,0.2-0.7,0.3-1.1,0.4c-0.4,0.1-0.9,0-1.4-0.1
	c-1-0.3-1.7-0.8-2.2-1.6c-0.4-0.8-0.5-1.7-0.2-2.9c0.3-1,0.7-1.9,1.1-2.6c0.5-0.7,1-1.2,1.6-1.6c0.6-0.4,1.2-0.6,1.9-0.8
	c0.7-0.1,1.3-0.1,2,0l0,1.5c-0.5-0.1-1-0.1-1.4,0c-0.4,0.1-0.8,0.2-1.2,0.4C153.7,352,153.4,352.2,153.2,352.5z M152,354.9
	c-0.1,0.2-0.1,0.4-0.2,0.5c-0.1,0.3-0.1,0.5-0.1,0.8c0,0.3,0,0.5,0.1,0.7c0.1,0.2,0.2,0.4,0.4,0.6c0.2,0.2,0.4,0.3,0.7,0.4
	c0.4,0.1,0.8,0.1,1.1-0.2c0.3-0.2,0.5-0.6,0.7-1.1c0.1-0.5,0.1-0.9-0.1-1.3c-0.2-0.3-0.5-0.6-1-0.7c-0.4-0.1-0.7-0.1-1-0.1
	C152.4,354.6,152.1,354.7,152,354.9z M149.3,348c-0.3-0.2-0.7-0.3-1.1-0.4c-0.5-0.1-1-0.2-1.5-0.2c-0.5,0-0.9,0.1-1.3,0.3
	c-0.4,0.2-0.7,0.5-1,0.8c-0.3,0.4-0.5,0.8-0.6,1.3c-0.1,0.5-0.2,0.9-0.1,1.3c0,0.4,0.1,0.8,0.3,1.1c0.2,0.3,0.4,0.6,0.8,0.8
	c0.3,0.2,0.7,0.4,1.1,0.6l0.6,0.1l-0.5,1.8l-3.1-0.8l-0.4,1.6l4.7,1.2l1.3-4.9l-1.1-0.2c-0.7-0.2-1.2-0.5-1.5-0.8
	c-0.3-0.4-0.4-0.8-0.2-1.3c0.1-0.5,0.4-0.9,0.8-1.1c0.4-0.2,0.9-0.2,1.5-0.1c0.4,0.1,0.6,0.2,0.9,0.3c0.2,0.1,0.4,0.2,0.6,0.4
	l0.9-1.3C149.9,348.3,149.6,348.2,149.3,348z M196.6,356.5c0.9,0,1.8,0.3,2.4,0.6l0.4-1.8c-0.5-0.3-1.6-0.6-2.7-0.6
	c-2.6,0-3.8,1.3-3.8,2.9c0,1.3,0.8,2.2,2.5,2.8c1.2,0.5,1.8,0.7,1.8,1.3c0,0.5-0.4,0.9-1.4,0.9s-1.6-0.3-2-0.4l-0.5,1.7
	c0.6,0.3,1.3,0.5,2.4,0.5c2.2,0,3.6-1.2,3.6-2.8c0-1.4-1-2.2-2.6-2.8c-1.1-0.4-1.6-0.7-1.6-1.3C195.1,356.9,195.6,356.5,196.6,356.5
	z M248.1,354l-0.4,1l0-1l-1.4-5.3l1.9-0.5l-0.4-1.5l-5.4,1.4l0.4,1.5l1.8-0.5l2.2,8.1l1-0.3l2.4-3.3l-1-0.8L248.1,354z M241.6,351.9
	c0.2,0.9,0.3,1.7,0.3,2.5c-0.1,0.8-0.2,1.5-0.5,2.2c-0.3,0.7-0.7,1.2-1.2,1.7c-0.5,0.5-1.1,0.9-1.7,1.1l-0.8-1.3
	c0.4-0.2,0.8-0.4,1.1-0.8c0.3-0.3,0.6-0.6,0.8-1c0.2-0.4,0.4-0.8,0.5-1.2c0.1-0.4,0.2-0.8,0.1-1.2c-0.1,0.3-0.3,0.5-0.5,0.8
	c-0.2,0.2-0.6,0.4-1,0.5c-0.4,0.1-0.8,0.1-1.2,0.1c-0.4,0-0.7-0.1-1-0.3c-0.3-0.2-0.6-0.4-0.8-0.8c-0.2-0.3-0.4-0.7-0.5-1.2
	c-0.1-0.4-0.2-0.9-0.1-1.3c0-0.4,0.2-0.8,0.4-1.2c0.2-0.4,0.5-0.7,0.8-0.9c0.3-0.3,0.7-0.5,1.2-0.6c0.5-0.1,0.9-0.2,1.4-0.1
	c0.4,0,0.8,0.2,1.2,0.4c0.4,0.2,0.7,0.5,1,0.9C241.2,350.8,241.4,351.3,241.6,351.9z M239.9,352.5c0-0.1,0-0.2,0-0.3
	c0-0.1,0-0.1-0.1-0.2c-0.1-0.2-0.1-0.4-0.3-0.6c-0.1-0.2-0.3-0.4-0.4-0.5c-0.2-0.1-0.4-0.2-0.6-0.3c-0.2-0.1-0.5,0-0.7,0
	c-0.4,0.1-0.7,0.4-0.9,0.7c-0.2,0.4-0.2,0.8-0.1,1.2c0.3,1,0.9,1.4,1.9,1.1c0.4-0.1,0.6-0.3,0.8-0.5
	C239.8,353,239.9,352.8,239.9,352.5z M232.3,355.7c-0.7,0.2-1.2,0.2-1.7,0c-0.4-0.2-0.7-0.5-0.9-1c-0.1-0.5-0.1-0.9,0.2-1.3
	c0.2-0.4,0.7-0.6,1.2-0.8c0.4-0.1,0.7-0.2,0.9-0.2c0.3,0,0.5,0,0.7,0l0.1-1.6c-0.3-0.1-0.6-0.1-1,0c-0.4,0-0.8,0.1-1.2,0.2
	c-0.5,0.1-1,0.3-1.4,0.6c-0.4,0.3-0.7,0.6-1,0.9c-0.2,0.4-0.4,0.8-0.5,1.2c-0.1,0.5,0,0.9,0.1,1.5c0.1,0.5,0.3,0.8,0.5,1.2
	c0.2,0.3,0.5,0.6,0.8,0.8c0.3,0.2,0.7,0.3,1.1,0.4c0.4,0,0.8,0,1.3-0.1l0.5-0.2l0.5,1.8l-3.1,0.8l0.4,1.6l4.7-1.2l-1.3-4.9
	L232.3,355.7z M289.2,334.2l-1.2-0.5l-0.7,1.4l-0.2,1.1l-0.3-0.9l-2.8-4.8l1.7-1l-0.8-1.3l-4.8,2.8l0.8,1.3l1.6-1l4.2,7.3l0.9-0.5
	L289.2,334.2z M279.4,336.8c-0.6,0.4-1.2,0.5-1.6,0.5c-0.5,0-0.8-0.3-1.1-0.8c-0.3-0.5-0.3-0.9-0.2-1.3c0.1-0.4,0.5-0.8,1-1.1
	c0.3-0.2,0.6-0.3,0.8-0.4c0.2-0.1,0.5-0.1,0.7-0.2l-0.3-1.6c-0.3,0-0.6,0.1-1,0.2c-0.4,0.1-0.7,0.3-1.1,0.5
	c-0.5,0.3-0.9,0.6-1.2,0.9c-0.3,0.3-0.5,0.7-0.7,1.1c-0.1,0.4-0.2,0.8-0.1,1.3c0,0.5,0.2,0.9,0.5,1.4c0.2,0.4,0.5,0.7,0.8,1
	c0.3,0.3,0.6,0.4,1,0.5c0.4,0.1,0.7,0.1,1.1,0.1c0.4-0.1,0.8-0.2,1.2-0.4l0.5-0.3l0.9,1.6l-2.8,1.6l0.9,1.5l4.2-2.4l-2.6-4.4
	L279.4,336.8z M274.5,339.8c0.9,1.5,1.2,2.7,1.2,3.8c-0.1,1-0.6,1.8-1.6,2.4c-1,0.6-2,0.7-2.9,0.2s-1.8-1.4-2.6-2.9
	c-0.9-1.5-1.2-2.8-1.2-3.8c0.1-1,0.6-1.8,1.6-2.4c1-0.6,2-0.6,2.9-0.1C272.8,337.5,273.7,338.4,274.5,339.8z M273.9,343.3
	c-0.1-0.6-0.4-1.5-1-2.5c-0.6-1-1.1-1.7-1.6-2.1s-1-0.5-1.5-0.2c-0.5,0.3-0.7,0.7-0.6,1.3c0.1,0.6,0.4,1.5,1,2.5
	c0.6,1,1.1,1.7,1.6,2.1c0.5,0.4,1,0.5,1.5,0.2C273.8,344.3,274,343.9,273.9,343.3z M314.8,307.7c-1.1,0.5-1.6,0.6-2.1,0.2
	c-0.4-0.4-0.4-1.1,0.3-1.8c0.6-0.6,1.5-1.1,2.1-1.3l-0.9-1.6c-0.6,0.2-1.5,0.7-2.3,1.5c-1.8,1.8-1.7,3.6-0.6,4.8
	c0.9,0.9,2.1,1,3.7,0.3c1.2-0.5,1.8-0.7,2.2-0.3c0.3,0.3,0.3,1-0.3,1.6s-1.3,0.9-1.7,1.1l0.9,1.6c0.6-0.2,1.3-0.6,2-1.4
	c1.6-1.6,1.7-3.4,0.5-4.5C317.6,306.8,316.3,306.9,314.8,307.7z M308.3,308.5l-4.3,4.3l1.2,1.2l2.7-2.7l1.6,1.6l-2.5,2.5l1.2,1.2
	l2.5-2.5l1.4,1.4l-2.6,2.6l1.2,1.2l4.1-4.1L308.3,308.5z M344.9,269l0.1,1.5l0.4,1l-0.7-0.7l-4.8-2.8l1-1.7l-1.3-0.8l-2.8,4.8
	l1.3,0.8l1-1.6l7.3,4.2l0.5-0.9l-0.6-4.1L344.9,269z M342,276.6c0.1,0.3,0.1,0.6,0,0.9c0,0.3-0.1,0.6-0.3,0.9
	c-0.2,0.4-0.5,0.7-0.8,0.7s-0.7,0-1-0.2c-0.3-0.2-0.5-0.4-0.8-0.7c-0.2-0.3-0.5-0.6-0.7-1s-0.4-0.8-0.6-1.2
	c-0.2-0.4-0.4-0.8-0.5-1.3c-0.2-0.4-0.3-0.8-0.4-1.2c-0.1-0.4-0.2-0.8-0.3-1.1l-0.8-0.5l-2.9,5.1l1.3,0.8l1.3-2.3l0.3-1l0.1,0
	l0.1,0.9c0.2,0.4,0.3,0.9,0.6,1.4c0.2,0.5,0.5,1,0.7,1.4c0.3,0.5,0.6,0.9,0.9,1.3c0.3,0.4,0.7,0.7,1.1,0.9c0.4,0.2,0.7,0.3,1.1,0.4
	c0.3,0,0.7,0,1-0.1c0.3-0.1,0.6-0.3,0.9-0.5c0.3-0.2,0.5-0.5,0.7-0.9c0.3-0.5,0.5-1.1,0.6-1.5c0.1-0.5,0.1-1,0-1.4L342,276.6z
	 M339.1,283.8c0.4,0.9,0.4,1.9-0.2,2.8c-0.6,1-1.4,1.6-2.4,1.6c-1,0.1-2.2-0.3-3.7-1.2c-1.5-0.9-2.5-1.8-2.9-2.7
	c-0.4-0.9-0.4-1.9,0.2-2.8c0.6-1,1.4-1.5,2.4-1.6s2.3,0.4,3.7,1.2C337.7,281.9,338.7,282.8,339.1,283.8z M337.5,284.3
	c-0.4-0.5-1.1-1.1-2.1-1.7c-1-0.6-1.8-0.9-2.5-1c-0.7-0.1-1.1,0.1-1.4,0.6c-0.3,0.5-0.2,1,0.1,1.5c0.4,0.5,1.1,1.1,2.2,1.7
	c1,0.6,1.8,0.9,2.4,1c0.7,0.1,1.1-0.1,1.4-0.6C337.9,285.3,337.8,284.8,337.5,284.3z M361.7,231.2l-1.7-3.8l-1.2,0.5l0.5,1.4
	l0.6,0.9l-0.9-0.4l-5.3-1.4l0.5-1.9l-1.5-0.4l-1.4,5.4l1.5,0.4l0.5-1.8l8.1,2.2L361.7,231.2z M355.7,234.2c1.7,0.4,2.8,1.1,3.5,1.8
	c0.7,0.8,0.8,1.7,0.6,2.8c-0.3,1.1-0.9,1.9-1.9,2.2s-2.2,0.3-3.9-0.2c-1.7-0.4-2.8-1.1-3.5-1.9c-0.7-0.8-0.8-1.7-0.6-2.8
	c0.3-1.1,1-1.8,1.9-2.1C352.8,233.7,354.1,233.7,355.7,234.2z M357.7,237c-0.5-0.4-1.3-0.7-2.5-1.1c-1.1-0.3-2-0.4-2.6-0.3
	c-0.7,0.1-1.1,0.4-1.2,0.9c-0.1,0.5,0,1,0.5,1.4c0.5,0.4,1.3,0.8,2.5,1.1c1.1,0.3,2,0.4,2.6,0.3c0.7-0.1,1.1-0.4,1.2-1
	C358.4,237.8,358.2,237.4,357.7,237z M356.8,248.8l1.2-4.7l-5-1.3l-0.2,1.1c-0.2,0.7-0.5,1.2-0.8,1.5c-0.4,0.3-0.8,0.4-1.3,0.2
	c-0.5-0.1-0.9-0.4-1.1-0.8c-0.2-0.4-0.2-0.9-0.1-1.5c0.1-0.4,0.2-0.6,0.3-0.9s0.2-0.4,0.4-0.6L349,241c-0.2,0.2-0.4,0.5-0.5,0.9
	c-0.2,0.3-0.3,0.7-0.4,1.1c-0.1,0.5-0.2,1-0.2,1.5c0,0.5,0.1,0.9,0.3,1.3c0.2,0.4,0.5,0.7,0.8,1c0.4,0.3,0.8,0.5,1.3,0.6
	c0.4,0.1,0.9,0.2,1.3,0.1c0.4,0,0.8-0.1,1.1-0.3c0.3-0.2,0.6-0.4,0.8-0.8c0.2-0.3,0.4-0.7,0.6-1.1l0.1-0.6l1.8,0.5l-0.8,3.1
	L356.8,248.8z M364.8,198.9V193h-9.4v6h1.8v-3.9h2.2v3.5h1.7v-3.5h2v3.7H364.8z M348.2,147.3l0.5,1.7l10,1.4l0.5-0.1l-1.6-6.1
	l-1.6,0.4l0.9,3.5l0.4,0.8l-0.8-0.4L348.2,147.3z M354.8,154l0.3,1.1c0.2,0.7,0.2,1.2,0,1.7c-0.2,0.4-0.5,0.7-1,0.9
	c-0.5,0.1-0.9,0.1-1.3-0.2c-0.4-0.2-0.6-0.7-0.8-1.3c-0.1-0.4-0.2-0.7-0.2-0.9c0-0.3,0-0.5,0-0.7l-1.6-0.1c0,0.3-0.1,0.6,0,1
	c0,0.4,0.1,0.8,0.2,1.2c0.1,0.5,0.3,1,0.6,1.4s0.6,0.7,0.9,1c0.4,0.2,0.8,0.4,1.2,0.5c0.5,0.1,0.9,0,1.5-0.1
	c0.5-0.1,0.8-0.3,1.2-0.5c0.3-0.2,0.6-0.5,0.8-0.8c0.2-0.3,0.3-0.7,0.4-1.1s0-0.8-0.1-1.3l-0.2-0.5l1.8-0.5l0.8,3.1l1.6-0.4
	l-1.2-4.7L354.8,154z M333.2,107.1c0.8-0.5,1.6-0.8,2.4-0.9c0.8-0.1,1.5-0.2,2.2,0c0.7,0.1,1.4,0.3,2,0.7c0.6,0.4,1.1,0.8,1.5,1.3
	l-1,1.1c-0.3-0.4-0.6-0.7-1-0.9c-0.4-0.2-0.8-0.4-1.2-0.5s-0.8-0.2-1.3-0.2c-0.4,0-0.8,0.1-1.2,0.2c0.3,0,0.6,0.2,0.9,0.3
	c0.3,0.2,0.5,0.5,0.8,0.8c0.2,0.4,0.3,0.7,0.4,1.1c0.1,0.4,0,0.7,0,1.1c-0.1,0.3-0.3,0.7-0.5,1c-0.3,0.3-0.6,0.6-1,0.8
	c-0.4,0.2-0.8,0.4-1.2,0.4c-0.4,0.1-0.8,0-1.2-0.1c-0.4-0.1-0.8-0.3-1.1-0.5c-0.3-0.3-0.6-0.6-0.9-1c-0.2-0.4-0.4-0.8-0.5-1.3
	c-0.1-0.4,0-0.8,0.1-1.3c0.1-0.4,0.3-0.8,0.7-1.2C332.2,107.8,332.7,107.5,333.2,107.1z M333.2,109.2c-0.2,0.2-0.3,0.3-0.4,0.5
	c-0.1,0.2-0.1,0.4-0.1,0.6c0,0.2,0.1,0.5,0.2,0.7c0.2,0.4,0.5,0.6,0.9,0.7c0.4,0.1,0.8,0,1.2-0.2c0.9-0.5,1.1-1.2,0.6-2.1
	c-0.2-0.3-0.4-0.6-0.7-0.7c-0.3-0.1-0.5-0.2-0.8-0.2c-0.1,0-0.2,0.1-0.2,0.1c-0.1,0-0.1,0.1-0.2,0.1
	C333.6,108.9,333.4,109.1,333.2,109.2z M338.3,113.2c1.5-0.9,2.7-1.2,3.8-1.1c1,0.1,1.8,0.6,2.4,1.6c0.6,1,0.7,2,0.2,2.9
	c-0.4,0.9-1.4,1.8-2.9,2.6c-1.5,0.9-2.8,1.2-3.8,1.2c-1-0.1-1.8-0.6-2.4-1.6c-0.6-1-0.6-2-0.1-2.9
	C335.9,114.9,336.9,114,338.3,113.2z M339.2,114.7c-1,0.6-1.7,1.1-2.1,1.6c-0.4,0.5-0.5,1-0.2,1.5c0.3,0.5,0.7,0.7,1.3,0.6
	c0.6-0.1,1.5-0.4,2.5-1c1-0.6,1.7-1.1,2.1-1.6c0.4-0.5,0.5-1,0.2-1.5c-0.3-0.5-0.7-0.7-1.4-0.6C341.1,113.8,340.2,114.1,339.2,114.7
	z M306.3,76.1c1.1-1.1,2-2.1,2.9-3l0,0c-0.5,1.1-0.9,2.4-1.2,3.5l-1.1,4l1.6,1.6l6.7-6.7l-1.4-1.4l-2,2c-1,1-1.9,1.9-2.7,2.9l0,0
	c0.5-1,0.9-2.3,1.2-3.4l1.1-3.8l-1.8-1.8l-6.7,6.7l1.4,1.4L306.3,76.1z M309.8,83.6l4.3,4.3l1.2-1.2l-2.7-2.7l1.6-1.6l2.5,2.5
	l1.2-1.2l-2.5-2.5l1.4-1.4l2.6,2.6l1.2-1.2l-4.1-4.1L309.8,83.6z M273.3,53.7c-0.4,0.1-0.9,0-1.4-0.3c-0.3-0.2-0.6-0.4-0.8-0.6
	c-0.2-0.2-0.4-0.4-0.5-0.7l-1.2,1.1c0.2,0.3,0.4,0.5,0.8,0.8c0.3,0.3,0.7,0.5,1,0.7c0.4,0.2,0.9,0.4,1.3,0.5c0.4,0.1,0.9,0.1,1.3,0
	c0.4-0.1,0.8-0.2,1.2-0.5c0.4-0.3,0.7-0.6,1-1.1c0.2-0.4,0.4-0.7,0.4-1.1c0.1-0.4,0-0.7,0-1c-0.1-0.3-0.2-0.6-0.4-0.8
	c-0.2-0.3-0.4-0.5-0.7-0.7l-0.6-0.2l0-0.1l0.7,0l3-1.3l0.5-0.9l-4.6-2.7l-0.8,1.3l2,1.2l1,0.4l-1,0.1l-2.6,1.2l-0.5,0.8l0.9,0.5
	c0.6,0.3,1,0.7,1.1,1.1c0.1,0.4,0.1,0.8-0.2,1.3C274,53.3,273.7,53.6,273.3,53.7z M278.2,52.9c0.9-1.5,1.8-2.4,2.7-2.9
	c0.9-0.4,1.9-0.4,2.8,0.2c1,0.6,1.6,1.4,1.6,2.4c0.1,1-0.3,2.2-1.2,3.7c-0.9,1.5-1.8,2.5-2.7,2.9c-0.9,0.4-1.9,0.4-2.8-0.2
	c-1-0.6-1.5-1.4-1.6-2.4C276.9,55.5,277.3,54.3,278.2,52.9z M279.3,57.7c0.5,0.3,1,0.2,1.5-0.1c0.5-0.4,1.1-1.1,1.7-2.2
	c0.6-1,0.9-1.8,1-2.4c0.1-0.7-0.1-1.1-0.6-1.4c-0.5-0.3-1-0.2-1.5,0.1c-0.5,0.4-1.1,1.1-1.7,2.1c-0.6,1-0.9,1.8-1,2.5
	C278.6,56.9,278.8,57.4,279.3,57.7z M236.2,39.3l-1.8-0.5l2.2-8.1l-1-0.3l-3.8,1.7l0.5,1.2l1.4-0.5l0.9-0.6l-0.4,0.9l-1.4,5.3
	l-1.9-0.5l-0.4,1.5l5.4,1.4L236.2,39.3z M239.6,42c0.5,0.1,1,0.2,1.5,0.2c0.5,0,0.9-0.1,1.3-0.3c0.4-0.2,0.7-0.5,1-0.8
	c0.3-0.4,0.5-0.8,0.6-1.3c0.1-0.5,0.2-0.9,0.1-1.3c0-0.4-0.1-0.8-0.3-1.1c-0.2-0.3-0.4-0.6-0.8-0.8c-0.3-0.2-0.7-0.4-1.1-0.6
	l-0.6-0.1l0.5-1.8l3.1,0.8l0.4-1.6l-4.7-1.2l-1.3,4.9l1.1,0.2c0.7,0.2,1.2,0.5,1.5,0.8c0.3,0.4,0.4,0.8,0.2,1.3
	c-0.1,0.5-0.4,0.9-0.8,1.1c-0.4,0.2-0.9,0.2-1.5,0.1c-0.4-0.1-0.6-0.2-0.9-0.3c-0.2-0.1-0.4-0.2-0.6-0.4l-0.9,1.3
	c0.2,0.2,0.5,0.4,0.9,0.5C238.8,41.8,239.2,41.9,239.6,42z"/>
</svg>
