<?xml version="1.0" standalone="no"?>
<!DOCTYPE svg PUBLIC "-//W3C//DTD SVG 20010904//EN"
 "http://www.w3.org/TR/2001/REC-SVG-20010904/DTD/svg10.dtd">
<svg version="1.0" xmlns="http://www.w3.org/2000/svg"
 width="16.000000pt" height="16.000000pt" viewBox="0 0 16.000000 16.000000"
 preserveAspectRatio="xMidYMid meet">
<metadata>
Created by potrace 1.11, written by Peter Selinger 2001-2013
</metadata>
<g transform="translate(0.000000,16.000000) scale(0.004000,-0.004000)"
fill="#000000" stroke="none">
<path d="M0 2000 l0 -2000 2000 0 2000 0 0 2000 0 2000 -2000 0 -2000 0 0
-2000z m3475 1458 c15 -6 24 -18 23 -27 -3 -12 -28 -18 -113 -27 -309 -32
-501 -127 -740 -369 -71 -72 -166 -158 -210 -190 l-79 -58 -21 28 c-11 16 -48
64 -83 108 -35 44 -60 83 -55 87 4 5 24 13 43 18 117 34 276 106 373 168 37
24 70 44 72 44 2 0 28 14 57 32 212 126 430 193 635 197 40 0 84 -4 98 -11z
m-1453 -428 c25 -12 62 -20 93 -20 45 0 53 -3 68 -27 9 -16 35 -48 58 -73 59
-66 149 -205 180 -280 14 -36 40 -96 58 -134 17 -38 31 -75 31 -82 0 -8 8 -14
18 -14 29 0 66 -48 112 -142 37 -78 85 -138 111 -138 15 0 39 -58 39 -95 0
-58 20 -121 66 -212 24 -47 44 -92 44 -99 0 -7 11 -39 25 -70 34 -78 33 -94
-7 -94 -57 0 -75 10 -91 48 -13 33 -15 34 -16 12 -2 -37 -22 -57 -70 -70 -40
-10 -47 -9 -72 9 -16 12 -32 21 -37 21 -6 0 -17 12 -27 26 -13 20 -15 37 -10
73 4 25 7 78 7 117 -1 63 1 73 19 77 23 6 25 40 4 81 -8 15 -15 38 -15 50 0
24 -107 134 -155 160 -46 24 -73 51 -80 79 -4 13 -20 38 -36 53 -26 25 -38 29
-89 29 -71 0 -89 -13 -66 -46 19 -27 21 -71 4 -102 -6 -12 -37 -47 -70 -78
l-58 -57 -2 -128 c-1 -71 -3 -140 -4 -154 -1 -14 -2 -33 -3 -44 -1 -15 -6 -17
-31 -12 -23 4 -30 2 -30 -10 0 -20 -27 -29 -45 -14 -11 9 -15 33 -15 84 -1 67
-2 69 -15 46 -8 -14 -14 -33 -15 -43 0 -23 -26 -33 -45 -17 -20 17 -19 53 5
99 27 55 60 143 60 164 0 9 20 55 45 100 25 46 45 89 45 96 0 30 -31 19 -77
-27 -33 -33 -78 -63 -132 -88 -88 -42 -82 -32 -96 -149 -5 -46 -4 -48 9 -29 8
11 16 43 18 70 2 35 7 49 18 49 18 0 47 -59 56 -113 5 -34 3 -42 -22 -62 -27
-21 -23 -22 21 -4 11 4 15 -1 15 -19 0 -16 -14 -37 -40 -61 -36 -33 -45 -36
-98 -36 -78 0 -95 18 -100 105 -3 49 0 74 16 107 11 24 23 61 26 83 11 67 25
90 73 121 l46 29 -122 11 c-67 7 -136 17 -154 24 -81 31 -126 59 -172 110 -27
30 -90 96 -140 146 l-90 91 -102 32 c-79 26 -129 35 -222 41 -67 4 -127 13
-135 19 -7 6 -19 25 -26 42 -11 26 -10 32 6 50 18 20 18 22 1 51 -22 39 -22
60 5 93 22 29 109 75 141 75 10 0 53 12 95 26 72 25 144 44 167 45 6 0 35 -4
65 -10 30 -6 89 -15 130 -21 44 -7 96 -23 125 -38 89 -48 175 -152 175 -213 0
-24 17 -25 24 -1 9 26 68 87 107 111 41 25 49 26 49 6 0 -8 5 -15 10 -15 6 0
10 4 10 8 0 16 131 161 158 176 41 21 126 19 174 -4z m-589 -825 c40 -15 105
-29 149 -32 47 -4 78 -10 78 -17 0 -6 -12 -29 -25 -51 -14 -22 -25 -49 -25
-61 0 -33 -21 -84 -34 -84 -14 0 -91 79 -179 183 -81 97 -78 103 36 62z m-37
-310 c24 -23 34 -41 34 -63 0 -26 3 -29 23 -25 12 4 34 14 49 25 47 32 67 17
68 -50 0 -12 13 -36 30 -53 17 -18 26 -36 22 -43 -61 -96 -95 -122 -126 -97
-10 9 -26 9 -62 1 -26 -6 -71 -8 -100 -4 -33 4 -54 2 -58 -5 -10 -15 -242 -15
-252 0 -19 31 64 96 160 124 24 7 46 21 52 34 17 34 31 45 72 56 32 9 37 15
40 42 2 24 -2 35 -17 45 -20 12 -28 38 -15 50 11 11 46 -5 80 -37z m802 -607
l3 -77 37 -3 37 -3 0 -50 0 -50 -37 -3 -38 -3 -2 -162 -3 -162 -45 0 -45 0 -3
162 -2 162 -38 3 -37 3 0 50 0 50 38 3 37 3 0 74 c0 80 3 85 60 82 l35 -2 3
-77z m-957 -65 c19 -10 58 -17 89 -18 l55 0 0 -215 0 -215 -47 -3 c-38 -2 -48
0 -48 12 0 21 -20 20 -50 -1 -32 -22 -135 -24 -176 -3 -76 39 -124 97 -144
175 -24 98 36 216 135 265 51 25 140 26 186 3z m583 2 c49 -20 110 -82 130
-129 23 -56 21 -147 -5 -193 -28 -52 -77 -101 -119 -121 -48 -23 -147 -23
-183 1 -14 9 -29 17 -31 17 -3 0 -6 -35 -8 -77 -3 -73 -4 -78 -29 -87 -14 -5
-38 -6 -53 -2 l-26 6 2 283 3 282 55 1 c30 0 71 7 90 16 45 21 127 22 174 3z
m841 -6 c61 -29 110 -86 131 -153 16 -50 16 -62 4 -109 -30 -121 -119 -192
-239 -192 -82 0 -145 33 -191 100 -46 67 -58 132 -36 201 45 142 200 214 331
153z m-1797 -51 c3 -47 3 -48 -38 -64 -62 -25 -74 -56 -80 -204 l-5 -125 -40
-3 c-62 -5 -65 4 -65 223 0 135 4 195 12 203 18 18 98 16 98 -3 0 -19 3 -19
42 5 53 32 72 24 76 -32z m2232 -3 c0 -41 -4 -55 -15 -55 -27 0 -62 -22 -78
-50 -13 -22 -17 -54 -17 -142 0 -136 -7 -151 -65 -146 l-40 3 0 215 0 215 48
3 c37 2 47 0 47 -12 0 -20 3 -20 42 4 18 11 43 20 56 20 20 0 22 -5 22 -55z
m285 19 c20 -20 35 -43 33 -52 -4 -20 -53 -34 -95 -28 -50 7 -41 -16 22 -58
94 -62 117 -129 73 -207 -48 -85 -156 -101 -224 -32 -48 48 -45 84 9 96 33 8
42 6 63 -14 20 -18 29 -21 42 -13 30 19 26 50 -11 78 -19 14 -39 26 -45 26 -6
0 -24 17 -41 37 -72 87 -17 202 96 203 35 0 48 -6 78 -36z"/>
<path d="M1650 2819 c0 -5 5 -7 10 -4 6 3 10 8 10 11 0 2 -4 4 -10 4 -5 0 -10
-5 -10 -11z"/>
<path d="M1637 2793 c-4 -3 -7 -11 -7 -17 0 -6 5 -5 12 2 6 6 9 14 7 17 -3 3
-9 2 -12 -2z"/>
<path d="M1613 2745 c-3 -9 -3 -18 -1 -21 3 -3 8 4 11 16 6 23 -1 27 -10 5z"/>
<path d="M1513 2660 c0 -25 2 -35 4 -22 2 12 2 32 0 45 -2 12 -4 2 -4 -23z"/>
<path d="M1593 2660 c0 -25 2 -35 4 -22 2 12 2 32 0 45 -2 12 -4 2 -4 -23z"/>
<path d="M1580 2584 c0 -8 -5 -24 -11 -35 -8 -16 -13 -18 -25 -8 -18 15 -19
-6 0 -39 10 -19 15 -21 23 -10 12 15 29 108 19 108 -3 0 -6 -7 -6 -16z"/>
<path d="M1685 1870 c-5 -8 -1 -16 9 -22 9 -5 16 -16 16 -23 0 -8 7 -15 15
-15 8 0 15 5 15 10 0 6 -4 10 -10 10 -5 0 -16 12 -23 26 -10 19 -16 23 -22 14z"/>
<path d="M1088 1114 c-61 -33 -79 -138 -32 -193 76 -90 224 -41 224 74 0 24
-4 55 -10 69 -21 57 -120 84 -182 50z"/>
<path d="M1644 1096 c-31 -31 -34 -39 -34 -94 0 -54 3 -64 30 -90 53 -54 143
-50 195 8 15 17 20 36 20 82 0 56 -2 62 -37 94 -33 29 -45 34 -89 34 -45 0
-55 -4 -85 -34z"/>
<path d="M2490 1108 c-38 -26 -64 -88 -54 -131 9 -41 51 -85 93 -98 81 -24
161 34 161 117 0 25 -7 58 -15 74 -31 60 -124 79 -185 38z"/>
</g>
</svg>
