<svg id="Layer_1" data-name="Layer 1" xmlns="http://www.w3.org/2000/svg" viewBox="0 0 93.68 9.63"><defs></defs><title>kompas_ikona</title><path d="M76.48,0a4.82,4.82,0,0,0-4.71,3.81H21.9a4.81,4.81,0,1,0,0,2H71.78A4.81,4.81,0,1,0,76.48,0ZM17.2,7.63A2.81,2.81,0,1,1,20,4.81,2.81,2.81,0,0,1,17.2,7.63Zm59.29,0A2.81,2.81,0,1,1,79.3,4.81,2.81,2.81,0,0,1,76.48,7.63ZM4.81,0A4.81,4.81,0,1,0,9.63,4.81,4.82,4.82,0,0,0,4.81,0Zm0,7.63A2.81,2.81,0,1,1,7.63,4.81,2.81,2.81,0,0,1,4.81,7.63ZM88.87,0a4.81,4.81,0,1,0,4.81,4.81A4.82,4.82,0,0,0,88.87,0Zm0,7.63a2.81,2.81,0,1,1,2.81-2.81A2.81,2.81,0,0,1,88.87,7.63Z"/></svg>